<mxfile host="65bd71144e">
    <diagram id="wqi4e_1XbH4hWJJOXw5I" name="第 1 页">
        <mxGraphModel dx="974" dy="847" grid="0" gridSize="10" guides="1" tooltips="1" connect="1" arrows="1" fold="1" page="1" pageScale="1" pageWidth="827" pageHeight="1169" math="0" shadow="0">
            <root>
                <mxCell id="0"/>
                <mxCell id="1" parent="0"/>
                <mxCell id="2" value="&lt;font style=&quot;font-size: 24px&quot;&gt;数据结构与算法分析中关于红黑树插入删除的操作(自顶向下)&lt;/font&gt;" style="text;html=1;align=center;verticalAlign=middle;resizable=0;points=[];autosize=1;strokeColor=none;fillColor=none;" parent="1" vertex="1">
                    <mxGeometry x="50" y="90" width="660" height="20" as="geometry"/>
                </mxCell>
                <mxCell id="3" value="&lt;font style=&quot;font-size: 18px&quot;&gt;红黑树插入&lt;/font&gt;" style="text;html=1;align=center;verticalAlign=middle;resizable=0;points=[];autosize=1;strokeColor=none;fillColor=none;" parent="1" vertex="1">
                    <mxGeometry x="50" y="130" width="110" height="20" as="geometry"/>
                </mxCell>
                <mxCell id="4" value="&lt;div style=&quot;text-align: left; font-size: 12px;&quot;&gt;&lt;span style=&quot;font-size: 12px&quot;&gt;自顶向下构建红黑树的过程是在插入结点之前避免两红相连的情况&lt;/span&gt;&lt;/div&gt;&lt;div style=&quot;text-align: left; font-size: 12px;&quot;&gt;&lt;span style=&quot;font-size: 12px&quot;&gt;通过自底向上的构造方法可知，如果最后插入的位置叔父结点为黑色的话可以通过一次换色和单旋来完成调整，并且调整后父结点为黑色，&lt;/span&gt;&lt;/div&gt;&lt;div style=&quot;text-align: left; font-size: 12px;&quot;&gt;&lt;span style=&quot;font-size: 12px&quot;&gt;不会与上层结点颜色发生冲突，也就是最终形态；&lt;/span&gt;&lt;span style=&quot;font-size: 12px&quot;&gt;而如果叔父结点的颜色是红色，那么通过换色来完成调整，调整过后父结点为红色，此时&lt;/span&gt;&lt;/div&gt;&lt;div style=&quot;text-align: left; font-size: 12px;&quot;&gt;&lt;span style=&quot;font-size: 12px&quot;&gt;就存在与上层结点冲突的可能性，因此需要递归向上检查。&lt;/span&gt;&lt;/div&gt;&lt;div style=&quot;text-align: left; font-size: 12px;&quot;&gt;&lt;span style=&quot;font-size: 12px&quot;&gt;因此，在自顶向下的调整过程中只要在插入过程中避免出现叔父为红色的情况，完成调整后如果再出现冲突(此时叔父结点为黑色)只需额外&lt;/span&gt;&lt;/div&gt;&lt;div style=&quot;text-align: left; font-size: 12px;&quot;&gt;&lt;span style=&quot;font-size: 12px&quot;&gt;进行一次平衡就可以。&lt;/span&gt;&lt;/div&gt;&lt;div style=&quot;text-align: left; font-size: 12px;&quot;&gt;&lt;span style=&quot;font-size: 12px&quot;&gt;调整的方法仍然是换色和旋转，并且也是存在一字型和之字型两种情况&lt;/span&gt;&lt;/div&gt;" style="text;html=1;align=center;verticalAlign=middle;resizable=0;points=[];autosize=1;strokeColor=none;fillColor=none;fontSize=12;spacing=1;" parent="1" vertex="1">
                    <mxGeometry x="54.5" y="162" width="744" height="104" as="geometry"/>
                </mxCell>
                <mxCell id="38" style="edgeStyle=none;html=1;exitX=0.5;exitY=1;exitDx=0;exitDy=0;dashed=1;dashPattern=1 1;endArrow=open;endFill=0;" edge="1" parent="1" source="6">
                    <mxGeometry relative="1" as="geometry">
                        <mxPoint x="211.5" y="451" as="targetPoint"/>
                    </mxGeometry>
                </mxCell>
                <mxCell id="6" value="" style="ellipse;whiteSpace=wrap;html=1;aspect=fixed;fontSize=12;strokeColor=#000000;fillColor=#FF0000;" vertex="1" parent="1">
                    <mxGeometry x="231.5" y="401" width="20" height="20" as="geometry"/>
                </mxCell>
                <mxCell id="9" value="" style="ellipse;whiteSpace=wrap;html=1;aspect=fixed;fontSize=12;strokeColor=#000000;fillColor=#FF0000;" vertex="1" parent="1">
                    <mxGeometry x="291.5" y="401" width="20" height="20" as="geometry"/>
                </mxCell>
                <mxCell id="11" style="edgeStyle=none;html=1;exitX=0.5;exitY=1;exitDx=0;exitDy=0;entryX=1;entryY=0;entryDx=0;entryDy=0;" edge="1" parent="1" source="10" target="6">
                    <mxGeometry relative="1" as="geometry"/>
                </mxCell>
                <mxCell id="12" style="edgeStyle=none;html=1;exitX=0.5;exitY=1;exitDx=0;exitDy=0;entryX=0;entryY=0;entryDx=0;entryDy=0;" edge="1" parent="1" source="10" target="9">
                    <mxGeometry relative="1" as="geometry"/>
                </mxCell>
                <mxCell id="10" value="" style="ellipse;whiteSpace=wrap;html=1;aspect=fixed;fontSize=12;strokeColor=#000000;fillColor=#000000;" vertex="1" parent="1">
                    <mxGeometry x="261.5" y="361" width="20" height="20" as="geometry"/>
                </mxCell>
                <mxCell id="13" value="current" style="text;html=1;align=center;verticalAlign=middle;resizable=0;points=[];autosize=1;strokeColor=none;fillColor=none;" vertex="1" parent="1">
                    <mxGeometry x="281.5" y="361" width="50" height="20" as="geometry"/>
                </mxCell>
                <mxCell id="14" value="son1" style="text;html=1;align=center;verticalAlign=middle;resizable=0;points=[];autosize=1;strokeColor=none;fillColor=none;" vertex="1" parent="1">
                    <mxGeometry x="191.5" y="401" width="40" height="20" as="geometry"/>
                </mxCell>
                <mxCell id="15" value="son2" style="text;html=1;align=center;verticalAlign=middle;resizable=0;points=[];autosize=1;strokeColor=none;fillColor=none;" vertex="1" parent="1">
                    <mxGeometry x="311.5" y="401" width="40" height="20" as="geometry"/>
                </mxCell>
                <mxCell id="21" style="edgeStyle=none;html=1;exitX=0.5;exitY=1;exitDx=0;exitDy=0;entryX=1;entryY=0;entryDx=0;entryDy=0;" edge="1" parent="1" source="16" target="10">
                    <mxGeometry relative="1" as="geometry"/>
                </mxCell>
                <mxCell id="16" value="" style="ellipse;whiteSpace=wrap;html=1;aspect=fixed;fontSize=12;strokeColor=#000000;fillColor=#FFFFFF;" vertex="1" parent="1">
                    <mxGeometry x="291.5" y="321" width="20" height="20" as="geometry"/>
                </mxCell>
                <mxCell id="17" value="parent" style="text;html=1;align=center;verticalAlign=middle;resizable=0;points=[];autosize=1;strokeColor=none;fillColor=none;" vertex="1" parent="1">
                    <mxGeometry x="306.5" y="321" width="50" height="20" as="geometry"/>
                </mxCell>
                <mxCell id="20" style="edgeStyle=none;html=1;exitX=0.5;exitY=1;exitDx=0;exitDy=0;entryX=1;entryY=0;entryDx=0;entryDy=0;" edge="1" parent="1" source="18" target="16">
                    <mxGeometry relative="1" as="geometry">
                        <mxPoint x="281.5" y="311" as="targetPoint"/>
                    </mxGeometry>
                </mxCell>
                <mxCell id="18" value="" style="ellipse;whiteSpace=wrap;html=1;aspect=fixed;fontSize=12;strokeColor=#000000;fillColor=#FFFFFF;" vertex="1" parent="1">
                    <mxGeometry x="321.5" y="281" width="20" height="20" as="geometry"/>
                </mxCell>
                <mxCell id="19" value="grandparent" style="text;html=1;align=center;verticalAlign=middle;resizable=0;points=[];autosize=1;strokeColor=none;fillColor=none;" vertex="1" parent="1">
                    <mxGeometry x="341.5" y="281" width="80" height="20" as="geometry"/>
                </mxCell>
                <mxCell id="22" value="&lt;span style=&quot;text-align: center&quot;&gt;在向下寻找插入的叶子结点位置的过程中，&lt;/span&gt;&lt;br&gt;假设检查到当前结点current有两个红色子节点&lt;br&gt;此时首先要进行换色，然后观察是否平衡" style="text;html=1;align=left;verticalAlign=middle;resizable=0;points=[];autosize=1;strokeColor=none;fillColor=none;" vertex="1" parent="1">
                    <mxGeometry x="421.5" y="311" width="260" height="50" as="geometry"/>
                </mxCell>
                <mxCell id="23" value="" style="ellipse;whiteSpace=wrap;html=1;aspect=fixed;fontSize=12;strokeColor=#000000;fillColor=#000000;" vertex="1" parent="1">
                    <mxGeometry x="91.5" y="621" width="20" height="20" as="geometry"/>
                </mxCell>
                <mxCell id="24" value="" style="ellipse;whiteSpace=wrap;html=1;aspect=fixed;fontSize=12;strokeColor=#000000;fillColor=#000000;" vertex="1" parent="1">
                    <mxGeometry x="151.5" y="621" width="20" height="20" as="geometry"/>
                </mxCell>
                <mxCell id="25" style="edgeStyle=none;html=1;exitX=0.5;exitY=1;exitDx=0;exitDy=0;entryX=1;entryY=0;entryDx=0;entryDy=0;" edge="1" parent="1" source="27" target="23">
                    <mxGeometry relative="1" as="geometry"/>
                </mxCell>
                <mxCell id="26" style="edgeStyle=none;html=1;exitX=0.5;exitY=1;exitDx=0;exitDy=0;entryX=0;entryY=0;entryDx=0;entryDy=0;" edge="1" parent="1" source="27" target="24">
                    <mxGeometry relative="1" as="geometry"/>
                </mxCell>
                <mxCell id="27" value="" style="ellipse;whiteSpace=wrap;html=1;aspect=fixed;fontSize=12;strokeColor=#000000;fillColor=#FF0000;" vertex="1" parent="1">
                    <mxGeometry x="121.5" y="581" width="20" height="20" as="geometry"/>
                </mxCell>
                <mxCell id="28" value="current" style="text;html=1;align=center;verticalAlign=middle;resizable=0;points=[];autosize=1;strokeColor=none;fillColor=none;" vertex="1" parent="1">
                    <mxGeometry x="141.5" y="581" width="50" height="20" as="geometry"/>
                </mxCell>
                <mxCell id="29" value="son1" style="text;html=1;align=center;verticalAlign=middle;resizable=0;points=[];autosize=1;strokeColor=none;fillColor=none;" vertex="1" parent="1">
                    <mxGeometry x="51.5" y="621" width="40" height="20" as="geometry"/>
                </mxCell>
                <mxCell id="30" value="son2" style="text;html=1;align=center;verticalAlign=middle;resizable=0;points=[];autosize=1;strokeColor=none;fillColor=none;" vertex="1" parent="1">
                    <mxGeometry x="171.5" y="621" width="40" height="20" as="geometry"/>
                </mxCell>
                <mxCell id="31" style="edgeStyle=none;html=1;exitX=0.5;exitY=1;exitDx=0;exitDy=0;entryX=1;entryY=0;entryDx=0;entryDy=0;" edge="1" parent="1" source="32" target="27">
                    <mxGeometry relative="1" as="geometry"/>
                </mxCell>
                <mxCell id="32" value="" style="ellipse;whiteSpace=wrap;html=1;aspect=fixed;fontSize=12;strokeColor=#000000;fillColor=#000000;" vertex="1" parent="1">
                    <mxGeometry x="151.5" y="541" width="20" height="20" as="geometry"/>
                </mxCell>
                <mxCell id="33" value="parent" style="text;html=1;align=center;verticalAlign=middle;resizable=0;points=[];autosize=1;strokeColor=none;fillColor=none;" vertex="1" parent="1">
                    <mxGeometry x="166.5" y="541" width="50" height="20" as="geometry"/>
                </mxCell>
                <mxCell id="34" style="edgeStyle=none;html=1;exitX=0.5;exitY=1;exitDx=0;exitDy=0;entryX=1;entryY=0;entryDx=0;entryDy=0;" edge="1" parent="1" source="35" target="32">
                    <mxGeometry relative="1" as="geometry">
                        <mxPoint x="141.5" y="531" as="targetPoint"/>
                    </mxGeometry>
                </mxCell>
                <mxCell id="35" value="" style="ellipse;whiteSpace=wrap;html=1;aspect=fixed;fontSize=12;strokeColor=#000000;fillColor=#FFFFFF;" vertex="1" parent="1">
                    <mxGeometry x="181.5" y="501" width="20" height="20" as="geometry"/>
                </mxCell>
                <mxCell id="36" value="&lt;div style=&quot;text-align: left&quot;&gt;&lt;span&gt;如果父结点为黑色，此时不存在冲突&lt;/span&gt;&lt;/div&gt;&lt;div style=&quot;text-align: left&quot;&gt;&lt;span&gt;继续向下查找即可&lt;/span&gt;&lt;/div&gt;" style="text;html=1;align=center;verticalAlign=middle;resizable=0;points=[];autosize=1;strokeColor=none;fillColor=none;" vertex="1" parent="1">
                    <mxGeometry x="216.5" y="556" width="210" height="30" as="geometry"/>
                </mxCell>
                <mxCell id="37" value="grandparent" style="text;html=1;align=center;verticalAlign=middle;resizable=0;points=[];autosize=1;strokeColor=none;fillColor=none;" vertex="1" parent="1">
                    <mxGeometry x="201.5" y="501" width="80" height="20" as="geometry"/>
                </mxCell>
                <mxCell id="39" value="(正在寻找插入的叶子结点位置的过程中)" style="text;html=1;align=center;verticalAlign=middle;resizable=0;points=[];autosize=1;strokeColor=none;fillColor=none;" vertex="1" parent="1">
                    <mxGeometry x="231.5" y="431" width="230" height="20" as="geometry"/>
                </mxCell>
                <mxCell id="40" value="" style="ellipse;whiteSpace=wrap;html=1;aspect=fixed;fontSize=12;strokeColor=#000000;fillColor=#000000;" vertex="1" parent="1">
                    <mxGeometry x="421.5" y="631" width="20" height="20" as="geometry"/>
                </mxCell>
                <mxCell id="41" value="" style="ellipse;whiteSpace=wrap;html=1;aspect=fixed;fontSize=12;strokeColor=#000000;fillColor=#000000;" vertex="1" parent="1">
                    <mxGeometry x="481.5" y="631" width="20" height="20" as="geometry"/>
                </mxCell>
                <mxCell id="42" style="edgeStyle=none;html=1;exitX=0.5;exitY=1;exitDx=0;exitDy=0;entryX=1;entryY=0;entryDx=0;entryDy=0;" edge="1" parent="1" source="44" target="40">
                    <mxGeometry relative="1" as="geometry"/>
                </mxCell>
                <mxCell id="43" style="edgeStyle=none;html=1;exitX=0.5;exitY=1;exitDx=0;exitDy=0;entryX=0;entryY=0;entryDx=0;entryDy=0;" edge="1" parent="1" source="44" target="41">
                    <mxGeometry relative="1" as="geometry"/>
                </mxCell>
                <mxCell id="44" value="" style="ellipse;whiteSpace=wrap;html=1;aspect=fixed;fontSize=12;strokeColor=#000000;fillColor=#FF0000;" vertex="1" parent="1">
                    <mxGeometry x="451.5" y="591" width="20" height="20" as="geometry"/>
                </mxCell>
                <mxCell id="45" value="current" style="text;html=1;align=center;verticalAlign=middle;resizable=0;points=[];autosize=1;strokeColor=none;fillColor=none;" vertex="1" parent="1">
                    <mxGeometry x="471.5" y="591" width="50" height="20" as="geometry"/>
                </mxCell>
                <mxCell id="46" value="son1" style="text;html=1;align=center;verticalAlign=middle;resizable=0;points=[];autosize=1;strokeColor=none;fillColor=none;" vertex="1" parent="1">
                    <mxGeometry x="381.5" y="631" width="40" height="20" as="geometry"/>
                </mxCell>
                <mxCell id="47" value="son2" style="text;html=1;align=center;verticalAlign=middle;resizable=0;points=[];autosize=1;strokeColor=none;fillColor=none;" vertex="1" parent="1">
                    <mxGeometry x="501.5" y="631" width="40" height="20" as="geometry"/>
                </mxCell>
                <mxCell id="48" style="edgeStyle=none;html=1;exitX=0.5;exitY=1;exitDx=0;exitDy=0;entryX=1;entryY=0;entryDx=0;entryDy=0;" edge="1" parent="1" source="49" target="44">
                    <mxGeometry relative="1" as="geometry"/>
                </mxCell>
                <mxCell id="49" value="" style="ellipse;whiteSpace=wrap;html=1;aspect=fixed;fontSize=12;strokeColor=#000000;fillColor=#FF0000;" vertex="1" parent="1">
                    <mxGeometry x="481.5" y="551" width="20" height="20" as="geometry"/>
                </mxCell>
                <mxCell id="50" value="parent" style="text;html=1;align=center;verticalAlign=middle;resizable=0;points=[];autosize=1;strokeColor=none;fillColor=none;" vertex="1" parent="1">
                    <mxGeometry x="496.5" y="551" width="50" height="20" as="geometry"/>
                </mxCell>
                <mxCell id="51" style="edgeStyle=none;html=1;exitX=0.5;exitY=1;exitDx=0;exitDy=0;entryX=1;entryY=0;entryDx=0;entryDy=0;" edge="1" parent="1" source="52" target="49">
                    <mxGeometry relative="1" as="geometry">
                        <mxPoint x="471.5" y="541" as="targetPoint"/>
                    </mxGeometry>
                </mxCell>
                <mxCell id="52" value="" style="ellipse;whiteSpace=wrap;html=1;aspect=fixed;fontSize=12;strokeColor=#000000;fillColor=#000000;" vertex="1" parent="1">
                    <mxGeometry x="511.5" y="511" width="20" height="20" as="geometry"/>
                </mxCell>
                <mxCell id="53" value="grandparent" style="text;html=1;align=center;verticalAlign=middle;resizable=0;points=[];autosize=1;strokeColor=none;fillColor=none;" vertex="1" parent="1">
                    <mxGeometry x="531.5" y="511" width="80" height="20" as="geometry"/>
                </mxCell>
                <mxCell id="71" value="&lt;div style=&quot;text-align: left&quot;&gt;&lt;span&gt;如果父结点为红色，存在冲突，需要换色+&lt;/span&gt;&lt;/div&gt;&lt;div style=&quot;text-align: left&quot;&gt;&lt;span&gt;旋转进行调整&lt;/span&gt;&lt;/div&gt;&lt;div style=&quot;text-align: left&quot;&gt;(此时祖父结点一定为黑&lt;span&gt;)&lt;/span&gt;&lt;/div&gt;" style="text;html=1;align=center;verticalAlign=middle;resizable=0;points=[];autosize=1;strokeColor=none;fillColor=none;" vertex="1" parent="1">
                    <mxGeometry x="570" y="582" width="240" height="50" as="geometry"/>
                </mxCell>
                <mxCell id="75" value="&lt;span style=&quot;color: rgba(0 , 0 , 0 , 0) ; font-family: monospace ; font-size: 0px&quot;&gt;%3CmxGraphModel%3E%3Croot%3E%3CmxCell%20id%3D%220%22%2F%3E%3CmxCell%20id%3D%221%22%20parent%3D%220%22%2F%3E%3CmxCell%20id%3D%222%22%20value%3D%22Case%201%3A%22%20style%3D%22text%3Bhtml%3D1%3Balign%3Dcenter%3BverticalAlign%3Dmiddle%3Bresizable%3D0%3Bpoints%3D%5B%5D%3Bautosize%3D1%3BstrokeColor%3Dnone%3BfillColor%3Dnone%3BfontSize%3D12%3B%22%20vertex%3D%221%22%20parent%3D%221%22%3E%3CmxGeometry%20x%3D%2269%22%20y%3D%22225%22%20width%3D%2260%22%20height%3D%2220%22%20as%3D%22geometry%22%2F%3E%3C%2FmxCell%3E%3C%2Froot%3E%3C%2FmxGraphModel%3E&lt;/span&gt;" style="text;html=1;align=center;verticalAlign=middle;resizable=0;points=[];autosize=1;strokeColor=none;fillColor=none;" vertex="1" parent="1">
                    <mxGeometry x="61.5" y="521" width="20" height="20" as="geometry"/>
                </mxCell>
                <mxCell id="76" value="State 1.1:" style="text;html=1;align=center;verticalAlign=middle;resizable=0;points=[];autosize=1;strokeColor=none;fillColor=none;fontSize=12;" vertex="1" parent="1">
                    <mxGeometry x="71.5" y="511" width="70" height="20" as="geometry"/>
                </mxCell>
                <mxCell id="77" value="State 1.2:" style="text;html=1;align=center;verticalAlign=middle;resizable=0;points=[];autosize=1;strokeColor=none;fillColor=none;fontSize=12;" vertex="1" parent="1">
                    <mxGeometry x="380.5" y="511" width="70" height="20" as="geometry"/>
                </mxCell>
                <mxCell id="78" value="State 0:" style="text;html=1;align=center;verticalAlign=middle;resizable=0;points=[];autosize=1;strokeColor=none;fillColor=none;fontSize=12;" vertex="1" parent="1">
                    <mxGeometry x="131.5" y="281" width="60" height="20" as="geometry"/>
                </mxCell>
                <mxCell id="79" value="State 1.2.1:" style="text;html=1;align=center;verticalAlign=middle;resizable=0;points=[];autosize=1;strokeColor=none;fillColor=none;fontSize=12;" vertex="1" parent="1">
                    <mxGeometry x="66" y="671" width="80" height="20" as="geometry"/>
                </mxCell>
                <mxCell id="80" value="" style="ellipse;whiteSpace=wrap;html=1;aspect=fixed;fontSize=12;strokeColor=#000000;fillColor=#000000;" vertex="1" parent="1">
                    <mxGeometry x="106" y="801" width="20" height="20" as="geometry"/>
                </mxCell>
                <mxCell id="81" value="" style="ellipse;whiteSpace=wrap;html=1;aspect=fixed;fontSize=12;strokeColor=#000000;fillColor=#000000;" vertex="1" parent="1">
                    <mxGeometry x="166" y="801" width="20" height="20" as="geometry"/>
                </mxCell>
                <mxCell id="82" style="edgeStyle=none;html=1;exitX=0.5;exitY=1;exitDx=0;exitDy=0;entryX=1;entryY=0;entryDx=0;entryDy=0;" edge="1" parent="1" source="84" target="80">
                    <mxGeometry relative="1" as="geometry"/>
                </mxCell>
                <mxCell id="83" style="edgeStyle=none;html=1;exitX=0.5;exitY=1;exitDx=0;exitDy=0;entryX=0;entryY=0;entryDx=0;entryDy=0;" edge="1" parent="1" source="84" target="81">
                    <mxGeometry relative="1" as="geometry"/>
                </mxCell>
                <mxCell id="84" value="" style="ellipse;whiteSpace=wrap;html=1;aspect=fixed;fontSize=12;strokeColor=#000000;fillColor=#FF0000;" vertex="1" parent="1">
                    <mxGeometry x="136" y="761" width="20" height="20" as="geometry"/>
                </mxCell>
                <mxCell id="85" value="current" style="text;html=1;align=center;verticalAlign=middle;resizable=0;points=[];autosize=1;strokeColor=none;fillColor=none;" vertex="1" parent="1">
                    <mxGeometry x="156" y="761" width="50" height="20" as="geometry"/>
                </mxCell>
                <mxCell id="86" value="son1" style="text;html=1;align=center;verticalAlign=middle;resizable=0;points=[];autosize=1;strokeColor=none;fillColor=none;" vertex="1" parent="1">
                    <mxGeometry x="66" y="801" width="40" height="20" as="geometry"/>
                </mxCell>
                <mxCell id="87" value="son2" style="text;html=1;align=center;verticalAlign=middle;resizable=0;points=[];autosize=1;strokeColor=none;fillColor=none;" vertex="1" parent="1">
                    <mxGeometry x="186" y="801" width="40" height="20" as="geometry"/>
                </mxCell>
                <mxCell id="88" style="edgeStyle=none;html=1;exitX=0.5;exitY=1;exitDx=0;exitDy=0;entryX=1;entryY=0;entryDx=0;entryDy=0;" edge="1" parent="1" source="89" target="84">
                    <mxGeometry relative="1" as="geometry"/>
                </mxCell>
                <mxCell id="89" value="" style="ellipse;whiteSpace=wrap;html=1;aspect=fixed;fontSize=12;strokeColor=#000000;fillColor=#FF0000;" vertex="1" parent="1">
                    <mxGeometry x="166" y="721" width="20" height="20" as="geometry"/>
                </mxCell>
                <mxCell id="90" value="parent" style="text;html=1;align=center;verticalAlign=middle;resizable=0;points=[];autosize=1;strokeColor=none;fillColor=none;" vertex="1" parent="1">
                    <mxGeometry x="181" y="721" width="50" height="20" as="geometry"/>
                </mxCell>
                <mxCell id="91" style="edgeStyle=none;html=1;exitX=0.5;exitY=1;exitDx=0;exitDy=0;entryX=1;entryY=0;entryDx=0;entryDy=0;" edge="1" parent="1" source="92" target="89">
                    <mxGeometry relative="1" as="geometry">
                        <mxPoint x="156" y="711" as="targetPoint"/>
                    </mxGeometry>
                </mxCell>
                <mxCell id="92" value="" style="ellipse;whiteSpace=wrap;html=1;aspect=fixed;fontSize=12;strokeColor=#000000;fillColor=#000000;" vertex="1" parent="1">
                    <mxGeometry x="196" y="681" width="20" height="20" as="geometry"/>
                </mxCell>
                <mxCell id="93" value="grandparent" style="text;html=1;align=center;verticalAlign=middle;resizable=0;points=[];autosize=1;strokeColor=none;fillColor=none;" vertex="1" parent="1">
                    <mxGeometry x="216" y="681" width="80" height="20" as="geometry"/>
                </mxCell>
                <mxCell id="96" value="" style="endArrow=classic;html=1;fontSize=12;fillColor=#99CCFF;" edge="1" parent="1">
                    <mxGeometry width="50" height="50" relative="1" as="geometry">
                        <mxPoint x="256" y="760" as="sourcePoint"/>
                        <mxPoint x="296" y="760.5" as="targetPoint"/>
                    </mxGeometry>
                </mxCell>
                <mxCell id="97" value="" style="ellipse;whiteSpace=wrap;html=1;aspect=fixed;fontSize=12;strokeColor=#000000;fillColor=#000000;" vertex="1" parent="1">
                    <mxGeometry x="286" y="801" width="20" height="20" as="geometry"/>
                </mxCell>
                <mxCell id="98" value="" style="ellipse;whiteSpace=wrap;html=1;aspect=fixed;fontSize=12;strokeColor=#000000;fillColor=#000000;" vertex="1" parent="1">
                    <mxGeometry x="346" y="801" width="20" height="20" as="geometry"/>
                </mxCell>
                <mxCell id="99" style="edgeStyle=none;html=1;exitX=0.5;exitY=1;exitDx=0;exitDy=0;entryX=1;entryY=0;entryDx=0;entryDy=0;" edge="1" parent="1" source="101" target="97">
                    <mxGeometry relative="1" as="geometry"/>
                </mxCell>
                <mxCell id="100" style="edgeStyle=none;html=1;exitX=0.5;exitY=1;exitDx=0;exitDy=0;entryX=0;entryY=0;entryDx=0;entryDy=0;" edge="1" parent="1" source="101" target="98">
                    <mxGeometry relative="1" as="geometry"/>
                </mxCell>
                <mxCell id="101" value="" style="ellipse;whiteSpace=wrap;html=1;aspect=fixed;fontSize=12;strokeColor=#000000;fillColor=#FF0000;" vertex="1" parent="1">
                    <mxGeometry x="316" y="761" width="20" height="20" as="geometry"/>
                </mxCell>
                <mxCell id="102" value="current" style="text;html=1;align=center;verticalAlign=middle;resizable=0;points=[];autosize=1;strokeColor=none;fillColor=none;" vertex="1" parent="1">
                    <mxGeometry x="266" y="771" width="50" height="20" as="geometry"/>
                </mxCell>
                <mxCell id="103" value="son1" style="text;html=1;align=center;verticalAlign=middle;resizable=0;points=[];autosize=1;strokeColor=none;fillColor=none;" vertex="1" parent="1">
                    <mxGeometry x="246" y="801" width="40" height="20" as="geometry"/>
                </mxCell>
                <mxCell id="104" value="son2" style="text;html=1;align=center;verticalAlign=middle;resizable=0;points=[];autosize=1;strokeColor=none;fillColor=none;" vertex="1" parent="1">
                    <mxGeometry x="366" y="801" width="40" height="20" as="geometry"/>
                </mxCell>
                <mxCell id="105" style="edgeStyle=none;html=1;exitX=0.5;exitY=1;exitDx=0;exitDy=0;entryX=1;entryY=0;entryDx=0;entryDy=0;" edge="1" parent="1" source="106" target="101">
                    <mxGeometry relative="1" as="geometry"/>
                </mxCell>
                <mxCell id="106" value="" style="ellipse;whiteSpace=wrap;html=1;aspect=fixed;fontSize=12;strokeColor=#000000;fillColor=#000000;" vertex="1" parent="1">
                    <mxGeometry x="346" y="721" width="20" height="20" as="geometry"/>
                </mxCell>
                <mxCell id="107" value="parent" style="text;html=1;align=center;verticalAlign=middle;resizable=0;points=[];autosize=1;strokeColor=none;fillColor=none;" vertex="1" parent="1">
                    <mxGeometry x="361" y="721" width="50" height="20" as="geometry"/>
                </mxCell>
                <mxCell id="108" style="edgeStyle=none;html=1;exitX=0.5;exitY=1;exitDx=0;exitDy=0;entryX=1;entryY=0;entryDx=0;entryDy=0;" edge="1" parent="1" source="109" target="106">
                    <mxGeometry relative="1" as="geometry">
                        <mxPoint x="336" y="711" as="targetPoint"/>
                    </mxGeometry>
                </mxCell>
                <mxCell id="109" value="" style="ellipse;whiteSpace=wrap;html=1;aspect=fixed;fontSize=12;strokeColor=#000000;fillColor=#FF0000;" vertex="1" parent="1">
                    <mxGeometry x="376" y="681" width="20" height="20" as="geometry"/>
                </mxCell>
                <mxCell id="110" value="grandparent" style="text;html=1;align=center;verticalAlign=middle;resizable=0;points=[];autosize=1;strokeColor=none;fillColor=none;" vertex="1" parent="1">
                    <mxGeometry x="396" y="681" width="80" height="20" as="geometry"/>
                </mxCell>
                <mxCell id="112" value="" style="endArrow=classic;html=1;fontSize=12;fillColor=#99CCFF;" edge="1" parent="1">
                    <mxGeometry width="50" height="50" relative="1" as="geometry">
                        <mxPoint x="400" y="760" as="sourcePoint"/>
                        <mxPoint x="440" y="760.5" as="targetPoint"/>
                    </mxGeometry>
                </mxCell>
                <mxCell id="116" value="" style="ellipse;whiteSpace=wrap;html=1;aspect=fixed;fontSize=12;strokeColor=#000000;fillColor=#000000;" vertex="1" parent="1">
                    <mxGeometry x="510" y="796" width="20" height="20" as="geometry"/>
                </mxCell>
                <mxCell id="117" value="" style="ellipse;whiteSpace=wrap;html=1;aspect=fixed;fontSize=12;strokeColor=#000000;fillColor=#000000;" vertex="1" parent="1">
                    <mxGeometry x="570" y="796" width="20" height="20" as="geometry"/>
                </mxCell>
                <mxCell id="118" style="edgeStyle=none;html=1;exitX=0.5;exitY=1;exitDx=0;exitDy=0;entryX=1;entryY=0;entryDx=0;entryDy=0;" edge="1" parent="1" source="120" target="116">
                    <mxGeometry relative="1" as="geometry"/>
                </mxCell>
                <mxCell id="119" style="edgeStyle=none;html=1;exitX=0.5;exitY=1;exitDx=0;exitDy=0;entryX=0;entryY=0;entryDx=0;entryDy=0;" edge="1" parent="1" source="120" target="117">
                    <mxGeometry relative="1" as="geometry"/>
                </mxCell>
                <mxCell id="120" value="" style="ellipse;whiteSpace=wrap;html=1;aspect=fixed;fontSize=12;strokeColor=#000000;fillColor=#FF0000;" vertex="1" parent="1">
                    <mxGeometry x="540" y="756" width="20" height="20" as="geometry"/>
                </mxCell>
                <mxCell id="138" style="edgeStyle=orthogonalEdgeStyle;html=1;entryX=0;entryY=0.5;entryDx=0;entryDy=0;endArrow=classic;endFill=1;curved=1;exitX=0.544;exitY=-0.15;exitDx=0;exitDy=0;exitPerimeter=0;dashed=1;" edge="1" parent="1" source="121" target="125">
                    <mxGeometry relative="1" as="geometry">
                        <Array as="points">
                            <mxPoint x="504" y="717"/>
                            <mxPoint x="525" y="717"/>
                            <mxPoint x="525" y="726"/>
                        </Array>
                    </mxGeometry>
                </mxCell>
                <mxCell id="121" value="&lt;font color=&quot;#ff0000&quot;&gt;son1&lt;/font&gt;(current)" style="text;html=1;align=center;verticalAlign=middle;resizable=0;points=[];autosize=1;strokeColor=none;fillColor=none;" vertex="1" parent="1">
                    <mxGeometry x="455" y="756" width="90" height="20" as="geometry"/>
                </mxCell>
                <mxCell id="122" value="&lt;font color=&quot;#ff0000&quot;&gt;grandson1&lt;/font&gt;&lt;br&gt;(son1)" style="text;html=1;align=center;verticalAlign=middle;resizable=0;points=[];autosize=1;strokeColor=none;fillColor=none;" vertex="1" parent="1">
                    <mxGeometry x="444" y="796" width="70" height="30" as="geometry"/>
                </mxCell>
                <mxCell id="123" value="&lt;font color=&quot;#ff0000&quot;&gt;grandson2&lt;/font&gt;&lt;br&gt;(son2)" style="text;html=1;align=center;verticalAlign=middle;resizable=0;points=[];autosize=1;strokeColor=none;fillColor=none;" vertex="1" parent="1">
                    <mxGeometry x="590" y="796" width="70" height="30" as="geometry"/>
                </mxCell>
                <mxCell id="124" style="edgeStyle=none;html=1;exitX=0.5;exitY=1;exitDx=0;exitDy=0;entryX=1;entryY=0;entryDx=0;entryDy=0;" edge="1" parent="1" source="125" target="120">
                    <mxGeometry relative="1" as="geometry"/>
                </mxCell>
                <mxCell id="131" style="edgeStyle=none;html=1;exitX=0.5;exitY=1;exitDx=0;exitDy=0;entryX=0;entryY=0;entryDx=0;entryDy=0;endArrow=classic;endFill=1;" edge="1" parent="1" source="125" target="128">
                    <mxGeometry relative="1" as="geometry"/>
                </mxCell>
                <mxCell id="125" value="" style="ellipse;whiteSpace=wrap;html=1;aspect=fixed;fontSize=12;strokeColor=#000000;fillColor=#000000;" vertex="1" parent="1">
                    <mxGeometry x="570" y="716" width="20" height="20" as="geometry"/>
                </mxCell>
                <mxCell id="126" value="&lt;font color=&quot;#ff0000&quot;&gt;current&lt;/font&gt;(parent)" style="text;html=1;align=center;verticalAlign=middle;resizable=0;points=[];autosize=1;strokeColor=none;fillColor=none;" vertex="1" parent="1">
                    <mxGeometry x="590" y="716" width="90" height="20" as="geometry"/>
                </mxCell>
                <mxCell id="128" value="" style="ellipse;whiteSpace=wrap;html=1;aspect=fixed;fontSize=12;strokeColor=#000000;fillColor=#FF0000;" vertex="1" parent="1">
                    <mxGeometry x="600" y="756" width="20" height="20" as="geometry"/>
                </mxCell>
                <mxCell id="129" value="&lt;font color=&quot;#ff0000&quot;&gt;son2&lt;/font&gt;(grandparent)" style="text;html=1;align=center;verticalAlign=middle;resizable=0;points=[];autosize=1;strokeColor=none;fillColor=none;" vertex="1" parent="1">
                    <mxGeometry x="620" y="756" width="110" height="20" as="geometry"/>
                </mxCell>
                <mxCell id="132" value="&lt;div style=&quot;text-align: left&quot;&gt;此时分为之字型和一字型两种情况，首先是一字型的情况&lt;/div&gt;&lt;div style=&quot;text-align: left&quot;&gt;与自顶向下的处理方法一致，将父亲结点与祖父结点颜色调换，然后进行一次单旋即可完成调整&lt;/div&gt;&lt;div style=&quot;text-align: left&quot;&gt;之后就可以继续向下查找(并且一定经过current和parent)，在找到插入位置后，其叔父结点一定是已经被调整过的&lt;/div&gt;" style="text;html=1;align=center;verticalAlign=middle;resizable=0;points=[];autosize=1;strokeColor=none;fillColor=none;" vertex="1" parent="1">
                    <mxGeometry x="66" y="841" width="610" height="50" as="geometry"/>
                </mxCell>
                <mxCell id="143" value="State 1.2.1:" style="text;html=1;align=center;verticalAlign=middle;resizable=0;points=[];autosize=1;strokeColor=none;fillColor=none;fontSize=12;" vertex="1" parent="1">
                    <mxGeometry x="65" y="901" width="80" height="20" as="geometry"/>
                </mxCell>
                <mxCell id="145" value="" style="ellipse;whiteSpace=wrap;html=1;aspect=fixed;fontSize=12;strokeColor=#000000;fillColor=#000000;" vertex="1" parent="1">
                    <mxGeometry x="125.5" y="1041" width="20" height="20" as="geometry"/>
                </mxCell>
                <mxCell id="146" value="" style="ellipse;whiteSpace=wrap;html=1;aspect=fixed;fontSize=12;strokeColor=#000000;fillColor=#000000;" vertex="1" parent="1">
                    <mxGeometry x="185.5" y="1041" width="20" height="20" as="geometry"/>
                </mxCell>
                <mxCell id="147" style="edgeStyle=none;html=1;exitX=0.5;exitY=1;exitDx=0;exitDy=0;entryX=1;entryY=0;entryDx=0;entryDy=0;" edge="1" parent="1" source="149" target="145">
                    <mxGeometry relative="1" as="geometry"/>
                </mxCell>
                <mxCell id="148" style="edgeStyle=none;html=1;exitX=0.5;exitY=1;exitDx=0;exitDy=0;entryX=0;entryY=0;entryDx=0;entryDy=0;" edge="1" parent="1" source="149" target="146">
                    <mxGeometry relative="1" as="geometry"/>
                </mxCell>
                <mxCell id="149" value="" style="ellipse;whiteSpace=wrap;html=1;aspect=fixed;fontSize=12;strokeColor=#000000;fillColor=#FF0000;" vertex="1" parent="1">
                    <mxGeometry x="155.5" y="1001" width="20" height="20" as="geometry"/>
                </mxCell>
                <mxCell id="150" value="current" style="text;html=1;align=center;verticalAlign=middle;resizable=0;points=[];autosize=1;strokeColor=none;fillColor=none;" vertex="1" parent="1">
                    <mxGeometry x="175" y="1001" width="50" height="20" as="geometry"/>
                </mxCell>
                <mxCell id="151" value="son1" style="text;html=1;align=center;verticalAlign=middle;resizable=0;points=[];autosize=1;strokeColor=none;fillColor=none;" vertex="1" parent="1">
                    <mxGeometry x="91.5" y="1041" width="40" height="20" as="geometry"/>
                </mxCell>
                <mxCell id="152" value="son2" style="text;html=1;align=center;verticalAlign=middle;resizable=0;points=[];autosize=1;strokeColor=none;fillColor=none;" vertex="1" parent="1">
                    <mxGeometry x="201.5" y="1041" width="40" height="20" as="geometry"/>
                </mxCell>
                <mxCell id="166" style="edgeStyle=none;html=1;exitX=0.5;exitY=1;exitDx=0;exitDy=0;entryX=0;entryY=0;entryDx=0;entryDy=0;fontColor=#000000;endArrow=classic;endFill=1;" edge="1" parent="1" source="154" target="149">
                    <mxGeometry relative="1" as="geometry"/>
                </mxCell>
                <mxCell id="233" style="edgeStyle=none;html=1;exitX=0.5;exitY=1;exitDx=0;exitDy=0;entryX=1;entryY=0;entryDx=0;entryDy=0;fontColor=#000000;endArrow=classic;endFill=1;" edge="1" parent="1" source="154" target="231">
                    <mxGeometry relative="1" as="geometry"/>
                </mxCell>
                <mxCell id="154" value="" style="ellipse;whiteSpace=wrap;html=1;aspect=fixed;fontSize=12;strokeColor=#000000;fillColor=#FF0000;" vertex="1" parent="1">
                    <mxGeometry x="125.5" y="961" width="20" height="20" as="geometry"/>
                </mxCell>
                <mxCell id="155" value="parent" style="text;html=1;align=center;verticalAlign=middle;resizable=0;points=[];autosize=1;strokeColor=none;fillColor=none;" vertex="1" parent="1">
                    <mxGeometry x="140.5" y="961" width="50" height="20" as="geometry"/>
                </mxCell>
                <mxCell id="156" style="edgeStyle=none;html=1;exitX=0.5;exitY=1;exitDx=0;exitDy=0;entryX=1;entryY=0;entryDx=0;entryDy=0;" edge="1" parent="1" source="157" target="154">
                    <mxGeometry relative="1" as="geometry">
                        <mxPoint x="115.5" y="951" as="targetPoint"/>
                    </mxGeometry>
                </mxCell>
                <mxCell id="157" value="" style="ellipse;whiteSpace=wrap;html=1;aspect=fixed;fontSize=12;strokeColor=#000000;fillColor=#000000;" vertex="1" parent="1">
                    <mxGeometry x="155.5" y="921" width="20" height="20" as="geometry"/>
                </mxCell>
                <mxCell id="159" value="grandparent" style="text;html=1;align=center;verticalAlign=middle;resizable=0;points=[];autosize=1;strokeColor=none;fillColor=none;" vertex="1" parent="1">
                    <mxGeometry x="175.5" y="921" width="80" height="20" as="geometry"/>
                </mxCell>
                <mxCell id="160" value="" style="endArrow=classic;html=1;fontSize=12;fillColor=#99CCFF;" edge="1" parent="1">
                    <mxGeometry width="50" height="50" relative="1" as="geometry">
                        <mxPoint x="255" y="991" as="sourcePoint"/>
                        <mxPoint x="295" y="991.5" as="targetPoint"/>
                    </mxGeometry>
                </mxCell>
                <mxCell id="167" value="" style="ellipse;whiteSpace=wrap;html=1;aspect=fixed;fontSize=12;strokeColor=#000000;fillColor=#000000;" vertex="1" parent="1">
                    <mxGeometry x="341" y="1041" width="20" height="20" as="geometry"/>
                </mxCell>
                <mxCell id="184" style="edgeStyle=none;html=1;exitX=0.5;exitY=1;exitDx=0;exitDy=0;entryX=0;entryY=0;entryDx=0;entryDy=0;fontColor=#000000;endArrow=classic;endFill=1;" edge="1" parent="1" source="171" target="167">
                    <mxGeometry relative="1" as="geometry"/>
                </mxCell>
                <mxCell id="236" style="edgeStyle=none;html=1;exitX=0.5;exitY=1;exitDx=0;exitDy=0;entryX=1;entryY=0;entryDx=0;entryDy=0;fontColor=#000000;endArrow=classic;endFill=1;" edge="1" parent="1" source="171" target="235">
                    <mxGeometry relative="1" as="geometry"/>
                </mxCell>
                <mxCell id="171" value="" style="ellipse;whiteSpace=wrap;html=1;aspect=fixed;fontSize=12;strokeColor=#000000;fillColor=#FF0000;" vertex="1" parent="1">
                    <mxGeometry x="311.5" y="1001" width="20" height="20" as="geometry"/>
                </mxCell>
                <mxCell id="172" value="parent" style="text;html=1;align=center;verticalAlign=middle;resizable=0;points=[];autosize=1;strokeColor=none;fillColor=none;" vertex="1" parent="1">
                    <mxGeometry x="266" y="1001" width="50" height="20" as="geometry"/>
                </mxCell>
                <mxCell id="175" style="edgeStyle=none;html=1;exitX=0.5;exitY=1;exitDx=0;exitDy=0;entryX=1;entryY=0;entryDx=0;entryDy=0;" edge="1" parent="1" source="176" target="171">
                    <mxGeometry relative="1" as="geometry"/>
                </mxCell>
                <mxCell id="183" style="edgeStyle=none;html=1;exitX=0.5;exitY=1;exitDx=0;exitDy=0;entryX=0;entryY=0;entryDx=0;entryDy=0;fontColor=#000000;endArrow=classic;endFill=1;" edge="1" parent="1" source="176" target="181">
                    <mxGeometry relative="1" as="geometry"/>
                </mxCell>
                <mxCell id="176" value="" style="ellipse;whiteSpace=wrap;html=1;aspect=fixed;fontSize=12;strokeColor=#000000;fillColor=#FF0000;" vertex="1" parent="1">
                    <mxGeometry x="341.5" y="961" width="20" height="20" as="geometry"/>
                </mxCell>
                <mxCell id="177" value="current" style="text;html=1;align=center;verticalAlign=middle;resizable=0;points=[];autosize=1;strokeColor=none;fillColor=none;" vertex="1" parent="1">
                    <mxGeometry x="356.5" y="961" width="50" height="20" as="geometry"/>
                </mxCell>
                <mxCell id="178" style="edgeStyle=none;html=1;exitX=0.5;exitY=1;exitDx=0;exitDy=0;entryX=1;entryY=0;entryDx=0;entryDy=0;" edge="1" parent="1" source="179" target="176">
                    <mxGeometry relative="1" as="geometry">
                        <mxPoint x="331.5" y="951" as="targetPoint"/>
                    </mxGeometry>
                </mxCell>
                <mxCell id="179" value="" style="ellipse;whiteSpace=wrap;html=1;aspect=fixed;fontSize=12;strokeColor=#000000;fillColor=#000000;" vertex="1" parent="1">
                    <mxGeometry x="371.5" y="921" width="20" height="20" as="geometry"/>
                </mxCell>
                <mxCell id="181" value="" style="ellipse;whiteSpace=wrap;html=1;aspect=fixed;fontSize=12;strokeColor=#000000;fillColor=#000000;" vertex="1" parent="1">
                    <mxGeometry x="371.5" y="1001" width="20" height="20" as="geometry"/>
                </mxCell>
                <mxCell id="185" value="grandparent" style="text;html=1;align=center;verticalAlign=middle;resizable=0;points=[];autosize=1;strokeColor=none;fillColor=none;" vertex="1" parent="1">
                    <mxGeometry x="391.5" y="921" width="80" height="20" as="geometry"/>
                </mxCell>
                <mxCell id="186" value="son1" style="text;html=1;align=center;verticalAlign=middle;resizable=0;points=[];autosize=1;strokeColor=none;fillColor=none;" vertex="1" parent="1">
                    <mxGeometry x="301.5" y="1041" width="40" height="20" as="geometry"/>
                </mxCell>
                <mxCell id="187" value="son2" style="text;html=1;align=center;verticalAlign=middle;resizable=0;points=[];autosize=1;strokeColor=none;fillColor=none;" vertex="1" parent="1">
                    <mxGeometry x="361.5" y="1021" width="40" height="20" as="geometry"/>
                </mxCell>
                <mxCell id="188" value="之字型的情况只需要多进行一次单旋，即可转化为一字型的情况，接下来进行相同的操作即可&lt;br&gt;(注意因为parent红色，所以当前结点的兄弟结点一定是黑色)" style="text;html=1;align=left;verticalAlign=middle;resizable=0;points=[];autosize=1;strokeColor=none;fillColor=none;fontColor=#000000;" vertex="1" parent="1">
                    <mxGeometry x="81.5" y="1081" width="510" height="30" as="geometry"/>
                </mxCell>
                <mxCell id="219" value="结束：" style="text;html=1;align=center;verticalAlign=middle;resizable=0;points=[];autosize=1;strokeColor=none;fillColor=none;fontColor=#000000;" vertex="1" parent="1">
                    <mxGeometry x="71.5" y="1152" width="50" height="20" as="geometry"/>
                </mxCell>
                <mxCell id="223" style="edgeStyle=none;html=1;exitX=0.5;exitY=1;exitDx=0;exitDy=0;entryX=1;entryY=0;entryDx=0;entryDy=0;fontColor=#000000;endArrow=classic;endFill=1;" edge="1" parent="1" source="221" target="222">
                    <mxGeometry relative="1" as="geometry"/>
                </mxCell>
                <mxCell id="221" value="" style="ellipse;whiteSpace=wrap;html=1;aspect=fixed;fontSize=12;strokeColor=#000000;fillColor=#FFFFFF;" vertex="1" parent="1">
                    <mxGeometry x="155.5" y="1182" width="20" height="20" as="geometry"/>
                </mxCell>
                <mxCell id="222" value="" style="ellipse;whiteSpace=wrap;html=1;aspect=fixed;fontSize=12;strokeColor=#000000;fillColor=#FFCCCC;dashed=1;" vertex="1" parent="1">
                    <mxGeometry x="125" y="1222" width="20" height="20" as="geometry"/>
                </mxCell>
                <mxCell id="224" value="insertpos" style="text;html=1;align=center;verticalAlign=middle;resizable=0;points=[];autosize=1;strokeColor=none;fillColor=none;fontColor=#000000;" vertex="1" parent="1">
                    <mxGeometry x="66.5" y="1222" width="60" height="20" as="geometry"/>
                </mxCell>
                <mxCell id="226" style="edgeStyle=none;html=1;exitX=0.5;exitY=1;exitDx=0;exitDy=0;entryX=1;entryY=0;entryDx=0;entryDy=0;fontColor=#000000;endArrow=classic;endFill=1;" edge="1" parent="1" source="225" target="221">
                    <mxGeometry relative="1" as="geometry"/>
                </mxCell>
                <mxCell id="228" style="edgeStyle=none;html=1;exitX=0.5;exitY=1;exitDx=0;exitDy=0;entryX=0;entryY=0;entryDx=0;entryDy=0;fontColor=#000000;endArrow=classic;endFill=1;" edge="1" parent="1" source="225" target="227">
                    <mxGeometry relative="1" as="geometry"/>
                </mxCell>
                <mxCell id="225" value="" style="ellipse;whiteSpace=wrap;html=1;aspect=fixed;fontSize=12;strokeColor=#000000;fillColor=#FFFFFF;" vertex="1" parent="1">
                    <mxGeometry x="185.5" y="1141" width="20" height="20" as="geometry"/>
                </mxCell>
                <mxCell id="227" value="" style="ellipse;whiteSpace=wrap;html=1;aspect=fixed;fontSize=12;strokeColor=#000000;fillColor=#FFFFFF;" vertex="1" parent="1">
                    <mxGeometry x="216.5" y="1182" width="20" height="20" as="geometry"/>
                </mxCell>
                <mxCell id="229" value="在这样建树的过程中，一定可以保证最后插入的位置中父结点和兄弟结点中有一个是黑色&lt;br&gt;(因为在祖父结点就会进行调整)&lt;br&gt;这样当1:父结点为黑色时，直接插入即可&lt;br&gt;&lt;span style=&quot;white-space: pre&quot;&gt;&#9;&lt;/span&gt;&amp;nbsp; &amp;nbsp;2:叔父结点为黑色时，进行一字型或之字型的换色和旋转处理" style="text;html=1;align=left;verticalAlign=middle;resizable=0;points=[];autosize=1;strokeColor=none;fillColor=none;fontColor=#000000;" vertex="1" parent="1">
                    <mxGeometry x="266" y="1152" width="480" height="60" as="geometry"/>
                </mxCell>
                <mxCell id="231" value="" style="ellipse;whiteSpace=wrap;html=1;aspect=fixed;fontSize=12;strokeColor=#000000;fillColor=#000000;" vertex="1" parent="1">
                    <mxGeometry x="95" y="1001" width="20" height="20" as="geometry"/>
                </mxCell>
                <mxCell id="234" value="sibling" style="text;html=1;align=center;verticalAlign=middle;resizable=0;points=[];autosize=1;strokeColor=none;fillColor=none;fontColor=#000000;" vertex="1" parent="1">
                    <mxGeometry x="61" y="1021" width="50" height="20" as="geometry"/>
                </mxCell>
                <mxCell id="235" value="" style="ellipse;whiteSpace=wrap;html=1;aspect=fixed;fontSize=12;strokeColor=#000000;fillColor=#000000;" vertex="1" parent="1">
                    <mxGeometry x="281" y="1041" width="20" height="20" as="geometry"/>
                </mxCell>
                <mxCell id="237" value="sibling" style="text;html=1;align=center;verticalAlign=middle;resizable=0;points=[];autosize=1;strokeColor=none;fillColor=none;fontColor=#000000;" vertex="1" parent="1">
                    <mxGeometry x="241.5" y="1031" width="50" height="20" as="geometry"/>
                </mxCell>
                <mxCell id="238" value="另外：当调整过程中将根结点染成红色后，一定在插入操作完成前将根结点重新染成黑色" style="text;html=1;align=center;verticalAlign=middle;resizable=0;points=[];autosize=1;strokeColor=none;fillColor=none;fontColor=#000000;" vertex="1" parent="1">
                    <mxGeometry x="66.5" y="1251" width="480" height="20" as="geometry"/>
                </mxCell>
                <mxCell id="239" value="&lt;font style=&quot;font-size: 18px&quot;&gt;红黑树删除&lt;/font&gt;" style="text;html=1;align=center;verticalAlign=middle;resizable=0;points=[];autosize=1;strokeColor=none;fillColor=none;" vertex="1" parent="1">
                    <mxGeometry x="50" y="1301" width="110" height="20" as="geometry"/>
                </mxCell>
                <mxCell id="240" value="&lt;font style=&quot;font-size: 12px&quot;&gt;与插入过程相对应，自顶向下的红黑树删除操作中主要处理的是删除操作当前访问结点具有两个黑色子结点的情况&lt;br&gt;原因同样可以参考自底向上删除的过程。首先与基本的ADT删除操作一样，自顶向下删除具有两个子结点的情况同样可以转化为&lt;br&gt;删除一个子结点的情况(即用左子树最小值结点或右子树最大值结点的值替换，然后删除左子树最小值结点或右子树最大值结点，&lt;br&gt;并且实际上最终总是可以转化为删除叶子结点的情况)&lt;br&gt;如果删除一个红色叶子结点的话直接删除即可，反之如果删除一个黑色的叶子结点则复杂的多，因此自顶向下删除要做的就是将&lt;br&gt;删除操作中访问的结点染成红色保证最终要删除的叶子结点是红色。&lt;br&gt;调整过程可分为以下几种情况：&lt;/font&gt;" style="text;html=1;align=left;verticalAlign=middle;resizable=0;points=[];autosize=1;strokeColor=none;fillColor=none;fontColor=#000000;" vertex="1" parent="1">
                    <mxGeometry x="65" y="1340" width="686" height="102" as="geometry"/>
                </mxCell>
                <mxCell id="241" value="&lt;div style=&quot;text-align: left&quot;&gt;&lt;span&gt;Case1.1:当前结点的子结点全为黑，根据兄弟结点的子结点颜色分四种情况&lt;/span&gt;&lt;/div&gt;&lt;div style=&quot;text-align: left&quot;&gt;&lt;span&gt;&amp;nbsp; &amp;nbsp; &amp;nbsp; &amp;nbsp; &amp;nbsp; &amp;nbsp; &amp;nbsp; &amp;nbsp;当同时&lt;/span&gt;&lt;span&gt;兄弟结点的子结点颜色也全为黑时为第一种情况&lt;/span&gt;&lt;/div&gt;&lt;div style=&quot;text-align: left&quot;&gt;&lt;span&gt;&amp;nbsp; &amp;nbsp; &amp;nbsp; &amp;nbsp; &amp;nbsp; &amp;nbsp; &amp;nbsp; (因为在自顶向下的调整中会将访问过程的点染成红色，因此父结点一定为红，同理调整前兄弟结点和当前结点一定为黑)&lt;/span&gt;&lt;/div&gt;&lt;div style=&quot;text-align: left&quot;&gt;&lt;span&gt;&lt;span style=&quot;white-space: pre&quot;&gt;&#9;&lt;/span&gt;&amp;nbsp; &amp;nbsp; &amp;nbsp; 这种情况直接进行一次换色即可&lt;br&gt;&lt;/span&gt;&lt;/div&gt;" style="text;html=1;align=center;verticalAlign=middle;resizable=0;points=[];autosize=1;strokeColor=none;fillColor=none;fontColor=#000000;" vertex="1" parent="1">
                    <mxGeometry x="57" y="1451" width="690" height="60" as="geometry"/>
                </mxCell>
                <mxCell id="246" style="edgeStyle=none;html=1;exitX=0.5;exitY=1;exitDx=0;exitDy=0;entryX=1;entryY=0;entryDx=0;entryDy=0;fontColor=#000000;endArrow=classic;endFill=1;" edge="1" parent="1" source="242" target="244">
                    <mxGeometry relative="1" as="geometry"/>
                </mxCell>
                <mxCell id="247" style="edgeStyle=none;html=1;exitX=0.5;exitY=1;exitDx=0;exitDy=0;entryX=0;entryY=0;entryDx=0;entryDy=0;fontColor=#000000;endArrow=classic;endFill=1;" edge="1" parent="1" source="242" target="245">
                    <mxGeometry relative="1" as="geometry"/>
                </mxCell>
                <mxCell id="242" value="" style="ellipse;whiteSpace=wrap;html=1;aspect=fixed;fontSize=12;strokeColor=#000000;fillColor=#000000;" vertex="1" parent="1">
                    <mxGeometry x="135.5" y="1581" width="20" height="20" as="geometry"/>
                </mxCell>
                <mxCell id="243" value="current" style="text;html=1;align=center;verticalAlign=middle;resizable=0;points=[];autosize=1;strokeColor=none;fillColor=none;fontColor=#000000;" vertex="1" parent="1">
                    <mxGeometry x="87" y="1581" width="50" height="20" as="geometry"/>
                </mxCell>
                <mxCell id="244" value="" style="ellipse;whiteSpace=wrap;html=1;aspect=fixed;fontSize=12;strokeColor=#000000;fillColor=#000000;" vertex="1" parent="1">
                    <mxGeometry x="106.5" y="1621" width="20" height="20" as="geometry"/>
                </mxCell>
                <mxCell id="245" value="" style="ellipse;whiteSpace=wrap;html=1;aspect=fixed;fontSize=12;strokeColor=#000000;fillColor=#000000;" vertex="1" parent="1">
                    <mxGeometry x="161" y="1621" width="20" height="20" as="geometry"/>
                </mxCell>
                <mxCell id="248" value="cson1" style="text;html=1;align=center;verticalAlign=middle;resizable=0;points=[];autosize=1;strokeColor=none;fillColor=none;fontColor=#000000;" vertex="1" parent="1">
                    <mxGeometry x="77" y="1641" width="50" height="20" as="geometry"/>
                </mxCell>
                <mxCell id="249" value="cson2" style="text;html=1;align=center;verticalAlign=middle;resizable=0;points=[];autosize=1;strokeColor=none;fillColor=none;fontColor=#000000;" vertex="1" parent="1">
                    <mxGeometry x="135.5" y="1641" width="50" height="20" as="geometry"/>
                </mxCell>
                <mxCell id="257" style="edgeStyle=none;html=1;exitX=0.5;exitY=1;exitDx=0;exitDy=0;entryX=1;entryY=0;entryDx=0;entryDy=0;fontColor=#000000;endArrow=classic;endFill=1;" edge="1" parent="1" source="250" target="242">
                    <mxGeometry relative="1" as="geometry"/>
                </mxCell>
                <mxCell id="258" style="edgeStyle=none;html=1;exitX=0.5;exitY=1;exitDx=0;exitDy=0;entryX=0;entryY=0;entryDx=0;entryDy=0;fontColor=#000000;endArrow=classic;endFill=1;" edge="1" parent="1" source="250" target="252">
                    <mxGeometry relative="1" as="geometry"/>
                </mxCell>
                <mxCell id="250" value="" style="ellipse;whiteSpace=wrap;html=1;aspect=fixed;fontSize=12;strokeColor=#000000;fillColor=#FF0000;" vertex="1" parent="1">
                    <mxGeometry x="177" y="1541" width="20" height="20" as="geometry"/>
                </mxCell>
                <mxCell id="259" style="edgeStyle=none;html=1;exitX=0.5;exitY=1;exitDx=0;exitDy=0;entryX=1;entryY=0;entryDx=0;entryDy=0;fontColor=#000000;endArrow=classic;endFill=1;" edge="1" parent="1" source="252" target="253">
                    <mxGeometry relative="1" as="geometry"/>
                </mxCell>
                <mxCell id="260" style="edgeStyle=none;html=1;exitX=0.5;exitY=1;exitDx=0;exitDy=0;entryX=0;entryY=0;entryDx=0;entryDy=0;fontColor=#000000;endArrow=classic;endFill=1;" edge="1" parent="1" source="252" target="256">
                    <mxGeometry relative="1" as="geometry"/>
                </mxCell>
                <mxCell id="252" value="" style="ellipse;whiteSpace=wrap;html=1;aspect=fixed;fontSize=12;strokeColor=#000000;fillColor=#000000;" vertex="1" parent="1">
                    <mxGeometry x="222" y="1581" width="20" height="20" as="geometry"/>
                </mxCell>
                <mxCell id="253" value="" style="ellipse;whiteSpace=wrap;html=1;aspect=fixed;fontSize=12;strokeColor=#000000;fillColor=#000000;" vertex="1" parent="1">
                    <mxGeometry x="192" y="1621" width="20" height="20" as="geometry"/>
                </mxCell>
                <mxCell id="256" value="" style="ellipse;whiteSpace=wrap;html=1;aspect=fixed;fontSize=12;strokeColor=#000000;fillColor=#000000;" vertex="1" parent="1">
                    <mxGeometry x="252" y="1621" width="20" height="20" as="geometry"/>
                </mxCell>
                <mxCell id="262" value="sson1" style="text;html=1;align=center;verticalAlign=middle;resizable=0;points=[];autosize=1;strokeColor=none;fillColor=none;fontColor=#000000;" vertex="1" parent="1">
                    <mxGeometry x="177" y="1641" width="50" height="20" as="geometry"/>
                </mxCell>
                <mxCell id="264" value="sson2" style="text;html=1;align=center;verticalAlign=middle;resizable=0;points=[];autosize=1;strokeColor=none;fillColor=none;fontColor=#000000;" vertex="1" parent="1">
                    <mxGeometry x="236.5" y="1641" width="50" height="20" as="geometry"/>
                </mxCell>
                <mxCell id="265" value="sibling" style="text;html=1;align=center;verticalAlign=middle;resizable=0;points=[];autosize=1;strokeColor=none;fillColor=none;fontColor=#000000;" vertex="1" parent="1">
                    <mxGeometry x="237" y="1581" width="50" height="20" as="geometry"/>
                </mxCell>
                <mxCell id="266" value="parent" style="text;html=1;align=center;verticalAlign=middle;resizable=0;points=[];autosize=1;strokeColor=none;fillColor=none;fontColor=#000000;" vertex="1" parent="1">
                    <mxGeometry x="192" y="1541" width="50" height="20" as="geometry"/>
                </mxCell>
                <mxCell id="268" value="" style="endArrow=classic;html=1;fontSize=12;fillColor=#99CCFF;" edge="1" parent="1">
                    <mxGeometry width="50" height="50" relative="1" as="geometry">
                        <mxPoint x="311" y="1590.5" as="sourcePoint"/>
                        <mxPoint x="351" y="1591" as="targetPoint"/>
                    </mxGeometry>
                </mxCell>
                <mxCell id="269" style="edgeStyle=none;html=1;exitX=0.5;exitY=1;exitDx=0;exitDy=0;entryX=1;entryY=0;entryDx=0;entryDy=0;fontColor=#000000;endArrow=classic;endFill=1;" edge="1" parent="1" source="271" target="273">
                    <mxGeometry relative="1" as="geometry"/>
                </mxCell>
                <mxCell id="270" style="edgeStyle=none;html=1;exitX=0.5;exitY=1;exitDx=0;exitDy=0;entryX=0;entryY=0;entryDx=0;entryDy=0;fontColor=#000000;endArrow=classic;endFill=1;" edge="1" parent="1" source="271" target="274">
                    <mxGeometry relative="1" as="geometry"/>
                </mxCell>
                <mxCell id="271" value="" style="ellipse;whiteSpace=wrap;html=1;aspect=fixed;fontSize=12;strokeColor=#000000;fillColor=#FF0000;" vertex="1" parent="1">
                    <mxGeometry x="409.5" y="1581" width="20" height="20" as="geometry"/>
                </mxCell>
                <mxCell id="272" value="current" style="text;html=1;align=center;verticalAlign=middle;resizable=0;points=[];autosize=1;strokeColor=none;fillColor=none;fontColor=#000000;" vertex="1" parent="1">
                    <mxGeometry x="361" y="1581" width="50" height="20" as="geometry"/>
                </mxCell>
                <mxCell id="273" value="" style="ellipse;whiteSpace=wrap;html=1;aspect=fixed;fontSize=12;strokeColor=#000000;fillColor=#000000;" vertex="1" parent="1">
                    <mxGeometry x="380.5" y="1621" width="20" height="20" as="geometry"/>
                </mxCell>
                <mxCell id="274" value="" style="ellipse;whiteSpace=wrap;html=1;aspect=fixed;fontSize=12;strokeColor=#000000;fillColor=#000000;" vertex="1" parent="1">
                    <mxGeometry x="435" y="1621" width="20" height="20" as="geometry"/>
                </mxCell>
                <mxCell id="275" value="cson1" style="text;html=1;align=center;verticalAlign=middle;resizable=0;points=[];autosize=1;strokeColor=none;fillColor=none;fontColor=#000000;" vertex="1" parent="1">
                    <mxGeometry x="351" y="1641" width="50" height="20" as="geometry"/>
                </mxCell>
                <mxCell id="276" value="cson2" style="text;html=1;align=center;verticalAlign=middle;resizable=0;points=[];autosize=1;strokeColor=none;fillColor=none;fontColor=#000000;" vertex="1" parent="1">
                    <mxGeometry x="409.5" y="1641" width="50" height="20" as="geometry"/>
                </mxCell>
                <mxCell id="277" style="edgeStyle=none;html=1;exitX=0.5;exitY=1;exitDx=0;exitDy=0;entryX=1;entryY=0;entryDx=0;entryDy=0;fontColor=#000000;endArrow=classic;endFill=1;" edge="1" parent="1" source="279" target="271">
                    <mxGeometry relative="1" as="geometry"/>
                </mxCell>
                <mxCell id="278" style="edgeStyle=none;html=1;exitX=0.5;exitY=1;exitDx=0;exitDy=0;entryX=0;entryY=0;entryDx=0;entryDy=0;fontColor=#000000;endArrow=classic;endFill=1;" edge="1" parent="1" source="279" target="282">
                    <mxGeometry relative="1" as="geometry"/>
                </mxCell>
                <mxCell id="279" value="" style="ellipse;whiteSpace=wrap;html=1;aspect=fixed;fontSize=12;strokeColor=#000000;fillColor=#000000;" vertex="1" parent="1">
                    <mxGeometry x="451" y="1541" width="20" height="20" as="geometry"/>
                </mxCell>
                <mxCell id="280" style="edgeStyle=none;html=1;exitX=0.5;exitY=1;exitDx=0;exitDy=0;entryX=1;entryY=0;entryDx=0;entryDy=0;fontColor=#000000;endArrow=classic;endFill=1;" edge="1" parent="1" source="282" target="283">
                    <mxGeometry relative="1" as="geometry"/>
                </mxCell>
                <mxCell id="281" style="edgeStyle=none;html=1;exitX=0.5;exitY=1;exitDx=0;exitDy=0;entryX=0;entryY=0;entryDx=0;entryDy=0;fontColor=#000000;endArrow=classic;endFill=1;" edge="1" parent="1" source="282" target="284">
                    <mxGeometry relative="1" as="geometry"/>
                </mxCell>
                <mxCell id="282" value="" style="ellipse;whiteSpace=wrap;html=1;aspect=fixed;fontSize=12;strokeColor=#000000;fillColor=#FF0000;" vertex="1" parent="1">
                    <mxGeometry x="496" y="1581" width="20" height="20" as="geometry"/>
                </mxCell>
                <mxCell id="283" value="" style="ellipse;whiteSpace=wrap;html=1;aspect=fixed;fontSize=12;strokeColor=#000000;fillColor=#000000;" vertex="1" parent="1">
                    <mxGeometry x="466" y="1621" width="20" height="20" as="geometry"/>
                </mxCell>
                <mxCell id="284" value="" style="ellipse;whiteSpace=wrap;html=1;aspect=fixed;fontSize=12;strokeColor=#000000;fillColor=#000000;" vertex="1" parent="1">
                    <mxGeometry x="526" y="1621" width="20" height="20" as="geometry"/>
                </mxCell>
                <mxCell id="285" value="sson1" style="text;html=1;align=center;verticalAlign=middle;resizable=0;points=[];autosize=1;strokeColor=none;fillColor=none;fontColor=#000000;" vertex="1" parent="1">
                    <mxGeometry x="451" y="1641" width="50" height="20" as="geometry"/>
                </mxCell>
                <mxCell id="286" value="sson2" style="text;html=1;align=center;verticalAlign=middle;resizable=0;points=[];autosize=1;strokeColor=none;fillColor=none;fontColor=#000000;" vertex="1" parent="1">
                    <mxGeometry x="510.5" y="1641" width="50" height="20" as="geometry"/>
                </mxCell>
                <mxCell id="287" value="sibling" style="text;html=1;align=center;verticalAlign=middle;resizable=0;points=[];autosize=1;strokeColor=none;fillColor=none;fontColor=#000000;" vertex="1" parent="1">
                    <mxGeometry x="511" y="1581" width="50" height="20" as="geometry"/>
                </mxCell>
                <mxCell id="288" value="parent" style="text;html=1;align=center;verticalAlign=middle;resizable=0;points=[];autosize=1;strokeColor=none;fillColor=none;fontColor=#000000;" vertex="1" parent="1">
                    <mxGeometry x="466" y="1541" width="50" height="20" as="geometry"/>
                </mxCell>
                <mxCell id="289" value="&lt;div style=&quot;text-align: left&quot;&gt;&lt;/div&gt;&lt;span style=&quot;text-align: left&quot;&gt;当前结点的子结点全为黑时，&lt;/span&gt;&lt;span style=&quot;text-align: left&quot;&gt;兄弟结点的子结点有一个为红为第二种情况，类似地，此时还存在之字型和一字型两种情况&lt;/span&gt;&lt;span style=&quot;text-align: left&quot;&gt;&lt;br&gt;&lt;/span&gt;" style="text;html=1;align=center;verticalAlign=middle;resizable=0;points=[];autosize=1;strokeColor=none;fillColor=none;fontColor=#000000;" vertex="1" parent="1">
                    <mxGeometry x="56.5" y="1691" width="650" height="20" as="geometry"/>
                </mxCell>
                <mxCell id="290" style="edgeStyle=none;html=1;exitX=0.5;exitY=1;exitDx=0;exitDy=0;entryX=1;entryY=0;entryDx=0;entryDy=0;fontColor=#000000;endArrow=classic;endFill=1;" edge="1" parent="1" source="292" target="294">
                    <mxGeometry relative="1" as="geometry"/>
                </mxCell>
                <mxCell id="291" style="edgeStyle=none;html=1;exitX=0.5;exitY=1;exitDx=0;exitDy=0;entryX=0;entryY=0;entryDx=0;entryDy=0;fontColor=#000000;endArrow=classic;endFill=1;" edge="1" parent="1" source="292" target="295">
                    <mxGeometry relative="1" as="geometry"/>
                </mxCell>
                <mxCell id="292" value="" style="ellipse;whiteSpace=wrap;html=1;aspect=fixed;fontSize=12;strokeColor=#000000;fillColor=#000000;" vertex="1" parent="1">
                    <mxGeometry x="137.5" y="1781" width="20" height="20" as="geometry"/>
                </mxCell>
                <mxCell id="293" value="current" style="text;html=1;align=center;verticalAlign=middle;resizable=0;points=[];autosize=1;strokeColor=none;fillColor=none;fontColor=#000000;" vertex="1" parent="1">
                    <mxGeometry x="89" y="1781" width="50" height="20" as="geometry"/>
                </mxCell>
                <mxCell id="294" value="" style="ellipse;whiteSpace=wrap;html=1;aspect=fixed;fontSize=12;strokeColor=#000000;fillColor=#000000;" vertex="1" parent="1">
                    <mxGeometry x="108.5" y="1821" width="20" height="20" as="geometry"/>
                </mxCell>
                <mxCell id="295" value="" style="ellipse;whiteSpace=wrap;html=1;aspect=fixed;fontSize=12;strokeColor=#000000;fillColor=#000000;" vertex="1" parent="1">
                    <mxGeometry x="163" y="1821" width="20" height="20" as="geometry"/>
                </mxCell>
                <mxCell id="296" value="cson1" style="text;html=1;align=center;verticalAlign=middle;resizable=0;points=[];autosize=1;strokeColor=none;fillColor=none;fontColor=#000000;" vertex="1" parent="1">
                    <mxGeometry x="79" y="1841" width="50" height="20" as="geometry"/>
                </mxCell>
                <mxCell id="297" value="cson2" style="text;html=1;align=center;verticalAlign=middle;resizable=0;points=[];autosize=1;strokeColor=none;fillColor=none;fontColor=#000000;" vertex="1" parent="1">
                    <mxGeometry x="137.5" y="1841" width="50" height="20" as="geometry"/>
                </mxCell>
                <mxCell id="298" style="edgeStyle=none;html=1;exitX=0.5;exitY=1;exitDx=0;exitDy=0;entryX=1;entryY=0;entryDx=0;entryDy=0;fontColor=#000000;endArrow=classic;endFill=1;" edge="1" parent="1" source="300" target="292">
                    <mxGeometry relative="1" as="geometry"/>
                </mxCell>
                <mxCell id="299" style="edgeStyle=none;html=1;exitX=0.5;exitY=1;exitDx=0;exitDy=0;entryX=0;entryY=0;entryDx=0;entryDy=0;fontColor=#000000;endArrow=classic;endFill=1;" edge="1" parent="1" source="300" target="303">
                    <mxGeometry relative="1" as="geometry"/>
                </mxCell>
                <mxCell id="300" value="" style="ellipse;whiteSpace=wrap;html=1;aspect=fixed;fontSize=12;strokeColor=#000000;fillColor=#FF0000;" vertex="1" parent="1">
                    <mxGeometry x="179" y="1741" width="20" height="20" as="geometry"/>
                </mxCell>
                <mxCell id="301" style="edgeStyle=none;html=1;exitX=0.5;exitY=1;exitDx=0;exitDy=0;entryX=1;entryY=0;entryDx=0;entryDy=0;fontColor=#000000;endArrow=classic;endFill=1;" edge="1" parent="1" source="303" target="304">
                    <mxGeometry relative="1" as="geometry"/>
                </mxCell>
                <mxCell id="302" style="edgeStyle=none;html=1;exitX=0.5;exitY=1;exitDx=0;exitDy=0;entryX=0;entryY=0;entryDx=0;entryDy=0;fontColor=#000000;endArrow=classic;endFill=1;" edge="1" parent="1" source="303" target="305">
                    <mxGeometry relative="1" as="geometry"/>
                </mxCell>
                <mxCell id="303" value="" style="ellipse;whiteSpace=wrap;html=1;aspect=fixed;fontSize=12;strokeColor=#000000;fillColor=#000000;" vertex="1" parent="1">
                    <mxGeometry x="224" y="1781" width="20" height="20" as="geometry"/>
                </mxCell>
                <mxCell id="304" value="" style="ellipse;whiteSpace=wrap;html=1;aspect=fixed;fontSize=12;strokeColor=#000000;fillColor=#000000;" vertex="1" parent="1">
                    <mxGeometry x="194" y="1821" width="20" height="20" as="geometry"/>
                </mxCell>
                <mxCell id="331" style="edgeStyle=none;html=1;exitX=0.5;exitY=1;exitDx=0;exitDy=0;entryX=1;entryY=0;entryDx=0;entryDy=0;fontColor=#000000;endArrow=classic;endFill=1;" edge="1" parent="1" source="305" target="328">
                    <mxGeometry relative="1" as="geometry"/>
                </mxCell>
                <mxCell id="332" style="edgeStyle=none;html=1;exitX=0.5;exitY=1;exitDx=0;exitDy=0;entryX=0;entryY=0;entryDx=0;entryDy=0;fontColor=#000000;endArrow=classic;endFill=1;" edge="1" parent="1" source="305" target="329">
                    <mxGeometry relative="1" as="geometry"/>
                </mxCell>
                <mxCell id="305" value="" style="ellipse;whiteSpace=wrap;html=1;aspect=fixed;fontSize=12;strokeColor=#000000;fillColor=#FF0000;" vertex="1" parent="1">
                    <mxGeometry x="254" y="1821" width="20" height="20" as="geometry"/>
                </mxCell>
                <mxCell id="306" value="sson1" style="text;html=1;align=center;verticalAlign=middle;resizable=0;points=[];autosize=1;strokeColor=none;fillColor=none;fontColor=#000000;" vertex="1" parent="1">
                    <mxGeometry x="179" y="1841" width="50" height="20" as="geometry"/>
                </mxCell>
                <mxCell id="307" value="sson2" style="text;html=1;align=center;verticalAlign=middle;resizable=0;points=[];autosize=1;strokeColor=none;fillColor=none;fontColor=#000000;" vertex="1" parent="1">
                    <mxGeometry x="269.5" y="1821" width="50" height="20" as="geometry"/>
                </mxCell>
                <mxCell id="308" value="sibling" style="text;html=1;align=center;verticalAlign=middle;resizable=0;points=[];autosize=1;strokeColor=none;fillColor=none;fontColor=#000000;" vertex="1" parent="1">
                    <mxGeometry x="239" y="1781" width="50" height="20" as="geometry"/>
                </mxCell>
                <mxCell id="309" value="parent" style="text;html=1;align=center;verticalAlign=middle;resizable=0;points=[];autosize=1;strokeColor=none;fillColor=none;fontColor=#000000;" vertex="1" parent="1">
                    <mxGeometry x="194" y="1741" width="50" height="20" as="geometry"/>
                </mxCell>
                <mxCell id="310" value="Case1.2.1:一字型情况，只需进行一次单旋，然后将旋转后的根结点染红，子结点染黑，当前访问结点染红即可" style="text;html=1;align=center;verticalAlign=middle;resizable=0;points=[];autosize=1;strokeColor=none;fillColor=none;fontColor=#000000;" vertex="1" parent="1">
                    <mxGeometry x="56.5" y="1711" width="600" height="20" as="geometry"/>
                </mxCell>
                <mxCell id="311" value="" style="endArrow=classic;html=1;fontSize=12;fillColor=#99CCFF;" edge="1" parent="1">
                    <mxGeometry width="50" height="50" relative="1" as="geometry">
                        <mxPoint x="329.5" y="1801" as="sourcePoint"/>
                        <mxPoint x="369.5" y="1801.5" as="targetPoint"/>
                    </mxGeometry>
                </mxCell>
                <mxCell id="316" style="edgeStyle=none;html=1;exitX=0.5;exitY=1;exitDx=0;exitDy=0;entryX=0;entryY=0;entryDx=0;entryDy=0;fontColor=#000000;endArrow=classic;endFill=1;" edge="1" parent="1" source="312" target="314">
                    <mxGeometry relative="1" as="geometry"/>
                </mxCell>
                <mxCell id="317" style="edgeStyle=none;html=1;exitX=0.5;exitY=1;exitDx=0;exitDy=0;entryX=1;entryY=0;entryDx=0;entryDy=0;fontColor=#000000;endArrow=classic;endFill=1;" edge="1" parent="1" source="312" target="313">
                    <mxGeometry relative="1" as="geometry"/>
                </mxCell>
                <mxCell id="312" value="" style="ellipse;whiteSpace=wrap;html=1;aspect=fixed;fontSize=12;strokeColor=#000000;fillColor=#000000;" vertex="1" parent="1">
                    <mxGeometry x="453.5" y="1741" width="20" height="20" as="geometry"/>
                </mxCell>
                <mxCell id="319" style="edgeStyle=none;html=1;exitX=0.5;exitY=1;exitDx=0;exitDy=0;fontColor=#000000;endArrow=classic;endFill=1;" edge="1" parent="1" source="313" target="318">
                    <mxGeometry relative="1" as="geometry"/>
                </mxCell>
                <mxCell id="321" style="edgeStyle=none;html=1;exitX=0.5;exitY=1;exitDx=0;exitDy=0;entryX=0;entryY=0;entryDx=0;entryDy=0;fontColor=#000000;endArrow=classic;endFill=1;" edge="1" parent="1" source="313" target="320">
                    <mxGeometry relative="1" as="geometry"/>
                </mxCell>
                <mxCell id="313" value="" style="ellipse;whiteSpace=wrap;html=1;aspect=fixed;fontSize=12;strokeColor=#000000;fillColor=#FF0000;" vertex="1" parent="1">
                    <mxGeometry x="414.5" y="1781" width="20" height="20" as="geometry"/>
                </mxCell>
                <mxCell id="337" style="edgeStyle=none;html=1;exitX=0.5;exitY=1;exitDx=0;exitDy=0;entryX=1;entryY=0;entryDx=0;entryDy=0;fontColor=#000000;endArrow=classic;endFill=1;" edge="1" parent="1" source="314" target="335">
                    <mxGeometry relative="1" as="geometry"/>
                </mxCell>
                <mxCell id="338" style="edgeStyle=none;html=1;exitX=0.5;exitY=1;exitDx=0;exitDy=0;entryX=0;entryY=0;entryDx=0;entryDy=0;fontColor=#000000;endArrow=classic;endFill=1;" edge="1" parent="1" source="314" target="336">
                    <mxGeometry relative="1" as="geometry"/>
                </mxCell>
                <mxCell id="314" value="" style="ellipse;whiteSpace=wrap;html=1;aspect=fixed;fontSize=12;strokeColor=#000000;fillColor=#FF0000;" vertex="1" parent="1">
                    <mxGeometry x="493" y="1781" width="20" height="20" as="geometry"/>
                </mxCell>
                <mxCell id="325" style="edgeStyle=none;html=1;exitX=0.5;exitY=1;exitDx=0;exitDy=0;entryX=1;entryY=0;entryDx=0;entryDy=0;fontColor=#000000;endArrow=classic;endFill=1;" edge="1" parent="1" source="318" target="322">
                    <mxGeometry relative="1" as="geometry"/>
                </mxCell>
                <mxCell id="326" style="edgeStyle=none;html=1;exitX=0.5;exitY=1;exitDx=0;exitDy=0;entryX=0;entryY=0;entryDx=0;entryDy=0;fontColor=#000000;endArrow=classic;endFill=1;" edge="1" parent="1" source="318" target="323">
                    <mxGeometry relative="1" as="geometry"/>
                </mxCell>
                <mxCell id="318" value="" style="ellipse;whiteSpace=wrap;html=1;aspect=fixed;fontSize=12;strokeColor=#000000;fillColor=#000000;" vertex="1" parent="1">
                    <mxGeometry x="383.5" y="1821" width="20" height="20" as="geometry"/>
                </mxCell>
                <mxCell id="320" value="" style="ellipse;whiteSpace=wrap;html=1;aspect=fixed;fontSize=12;strokeColor=#000000;fillColor=#000000;" vertex="1" parent="1">
                    <mxGeometry x="445" y="1821" width="20" height="20" as="geometry"/>
                </mxCell>
                <mxCell id="322" value="" style="ellipse;whiteSpace=wrap;html=1;aspect=fixed;fontSize=12;strokeColor=#000000;fillColor=#000000;" vertex="1" parent="1">
                    <mxGeometry x="355" y="1861" width="20" height="20" as="geometry"/>
                </mxCell>
                <mxCell id="323" value="" style="ellipse;whiteSpace=wrap;html=1;aspect=fixed;fontSize=12;strokeColor=#000000;fillColor=#000000;" vertex="1" parent="1">
                    <mxGeometry x="409" y="1861" width="20" height="20" as="geometry"/>
                </mxCell>
                <mxCell id="328" value="" style="ellipse;whiteSpace=wrap;html=1;aspect=fixed;fontSize=12;strokeColor=#000000;fillColor=#000000;" vertex="1" parent="1">
                    <mxGeometry x="228.5" y="1861" width="20" height="20" as="geometry"/>
                </mxCell>
                <mxCell id="329" value="" style="ellipse;whiteSpace=wrap;html=1;aspect=fixed;fontSize=12;strokeColor=#000000;fillColor=#000000;" vertex="1" parent="1">
                    <mxGeometry x="279.5" y="1861" width="20" height="20" as="geometry"/>
                </mxCell>
                <mxCell id="333" value="ssson1" style="text;html=1;align=center;verticalAlign=middle;resizable=0;points=[];autosize=1;strokeColor=none;fillColor=none;fontColor=#000000;" vertex="1" parent="1">
                    <mxGeometry x="214.5" y="1881" width="50" height="20" as="geometry"/>
                </mxCell>
                <mxCell id="334" value="ssson2" style="text;html=1;align=center;verticalAlign=middle;resizable=0;points=[];autosize=1;strokeColor=none;fillColor=none;fontColor=#000000;" vertex="1" parent="1">
                    <mxGeometry x="269.5" y="1881" width="50" height="20" as="geometry"/>
                </mxCell>
                <mxCell id="335" value="" style="ellipse;whiteSpace=wrap;html=1;aspect=fixed;fontSize=12;strokeColor=#000000;fillColor=#000000;" vertex="1" parent="1">
                    <mxGeometry x="468.5" y="1821" width="20" height="20" as="geometry"/>
                </mxCell>
                <mxCell id="336" value="" style="ellipse;whiteSpace=wrap;html=1;aspect=fixed;fontSize=12;strokeColor=#000000;fillColor=#000000;" vertex="1" parent="1">
                    <mxGeometry x="523.5" y="1821" width="20" height="20" as="geometry"/>
                </mxCell>
                <mxCell id="339" value="sibling" style="text;html=1;align=center;verticalAlign=middle;resizable=0;points=[];autosize=1;strokeColor=none;fillColor=none;fontColor=#000000;" vertex="1" parent="1">
                    <mxGeometry x="467.5" y="1741" width="50" height="20" as="geometry"/>
                </mxCell>
                <mxCell id="340" value="sson2" style="text;html=1;align=center;verticalAlign=middle;resizable=0;points=[];autosize=1;strokeColor=none;fillColor=none;fontColor=#000000;" vertex="1" parent="1">
                    <mxGeometry x="508.5" y="1781" width="50" height="20" as="geometry"/>
                </mxCell>
                <mxCell id="341" value="current" style="text;html=1;align=center;verticalAlign=middle;resizable=0;points=[];autosize=1;strokeColor=none;fillColor=none;fontColor=#000000;" vertex="1" parent="1">
                    <mxGeometry x="335" y="1821" width="50" height="20" as="geometry"/>
                </mxCell>
                <mxCell id="342" value="cson1" style="text;html=1;align=center;verticalAlign=middle;resizable=0;points=[];autosize=1;strokeColor=none;fillColor=none;fontColor=#000000;" vertex="1" parent="1">
                    <mxGeometry x="335" y="1881" width="50" height="20" as="geometry"/>
                </mxCell>
                <mxCell id="343" value="cson2" style="text;html=1;align=center;verticalAlign=middle;resizable=0;points=[];autosize=1;strokeColor=none;fillColor=none;fontColor=#000000;" vertex="1" parent="1">
                    <mxGeometry x="395" y="1881" width="50" height="20" as="geometry"/>
                </mxCell>
                <mxCell id="344" value="sson1" style="text;html=1;align=center;verticalAlign=middle;resizable=0;points=[];autosize=1;strokeColor=none;fillColor=none;fontColor=#000000;" vertex="1" parent="1">
                    <mxGeometry x="404" y="1831" width="50" height="20" as="geometry"/>
                </mxCell>
                <mxCell id="346" value="ssson2" style="text;html=1;align=center;verticalAlign=middle;resizable=0;points=[];autosize=1;strokeColor=none;fillColor=none;fontColor=#000000;" vertex="1" parent="1">
                    <mxGeometry x="517.5" y="1841" width="50" height="20" as="geometry"/>
                </mxCell>
                <mxCell id="347" value="ssson1" style="text;html=1;align=center;verticalAlign=middle;resizable=0;points=[];autosize=1;strokeColor=none;fillColor=none;fontColor=#000000;" vertex="1" parent="1">
                    <mxGeometry x="455" y="1841" width="50" height="20" as="geometry"/>
                </mxCell>
                <mxCell id="349" value="" style="endArrow=classic;html=1;fontSize=12;fillColor=#99CCFF;" edge="1" parent="1">
                    <mxGeometry width="50" height="50" relative="1" as="geometry">
                        <mxPoint x="575" y="1800" as="sourcePoint"/>
                        <mxPoint x="615" y="1800.5" as="targetPoint"/>
                    </mxGeometry>
                </mxCell>
                <mxCell id="350" style="edgeStyle=none;html=1;exitX=0.5;exitY=1;exitDx=0;exitDy=0;entryX=0;entryY=0;entryDx=0;entryDy=0;fontColor=#000000;endArrow=classic;endFill=1;" edge="1" parent="1" source="352" target="358">
                    <mxGeometry relative="1" as="geometry"/>
                </mxCell>
                <mxCell id="351" style="edgeStyle=none;html=1;exitX=0.5;exitY=1;exitDx=0;exitDy=0;entryX=1;entryY=0;entryDx=0;entryDy=0;fontColor=#000000;endArrow=classic;endFill=1;" edge="1" parent="1" source="352" target="355">
                    <mxGeometry relative="1" as="geometry"/>
                </mxCell>
                <mxCell id="352" value="" style="ellipse;whiteSpace=wrap;html=1;aspect=fixed;fontSize=12;strokeColor=#000000;fillColor=#FF0000;" vertex="1" parent="1">
                    <mxGeometry x="687.5" y="1741" width="20" height="20" as="geometry"/>
                </mxCell>
                <mxCell id="353" style="edgeStyle=none;html=1;exitX=0.5;exitY=1;exitDx=0;exitDy=0;fontColor=#000000;endArrow=classic;endFill=1;" edge="1" parent="1" source="355" target="361">
                    <mxGeometry relative="1" as="geometry"/>
                </mxCell>
                <mxCell id="354" style="edgeStyle=none;html=1;exitX=0.5;exitY=1;exitDx=0;exitDy=0;entryX=0;entryY=0;entryDx=0;entryDy=0;fontColor=#000000;endArrow=classic;endFill=1;" edge="1" parent="1" source="355" target="362">
                    <mxGeometry relative="1" as="geometry"/>
                </mxCell>
                <mxCell id="355" value="" style="ellipse;whiteSpace=wrap;html=1;aspect=fixed;fontSize=12;strokeColor=#000000;fillColor=#000000;" vertex="1" parent="1">
                    <mxGeometry x="648.5" y="1781" width="20" height="20" as="geometry"/>
                </mxCell>
                <mxCell id="356" style="edgeStyle=none;html=1;exitX=0.5;exitY=1;exitDx=0;exitDy=0;entryX=1;entryY=0;entryDx=0;entryDy=0;fontColor=#000000;endArrow=classic;endFill=1;" edge="1" parent="1" source="358" target="365">
                    <mxGeometry relative="1" as="geometry"/>
                </mxCell>
                <mxCell id="357" style="edgeStyle=none;html=1;exitX=0.5;exitY=1;exitDx=0;exitDy=0;entryX=0;entryY=0;entryDx=0;entryDy=0;fontColor=#000000;endArrow=classic;endFill=1;" edge="1" parent="1" source="358" target="366">
                    <mxGeometry relative="1" as="geometry"/>
                </mxCell>
                <mxCell id="358" value="" style="ellipse;whiteSpace=wrap;html=1;aspect=fixed;fontSize=12;strokeColor=#000000;fillColor=#000000;" vertex="1" parent="1">
                    <mxGeometry x="727" y="1781" width="20" height="20" as="geometry"/>
                </mxCell>
                <mxCell id="359" style="edgeStyle=none;html=1;exitX=0.5;exitY=1;exitDx=0;exitDy=0;entryX=1;entryY=0;entryDx=0;entryDy=0;fontColor=#000000;endArrow=classic;endFill=1;" edge="1" parent="1" source="361" target="363">
                    <mxGeometry relative="1" as="geometry"/>
                </mxCell>
                <mxCell id="360" style="edgeStyle=none;html=1;exitX=0.5;exitY=1;exitDx=0;exitDy=0;entryX=0;entryY=0;entryDx=0;entryDy=0;fontColor=#000000;endArrow=classic;endFill=1;" edge="1" parent="1" source="361" target="364">
                    <mxGeometry relative="1" as="geometry"/>
                </mxCell>
                <mxCell id="361" value="" style="ellipse;whiteSpace=wrap;html=1;aspect=fixed;fontSize=12;strokeColor=#000000;fillColor=#FF0000;" vertex="1" parent="1">
                    <mxGeometry x="617.5" y="1821" width="20" height="20" as="geometry"/>
                </mxCell>
                <mxCell id="362" value="" style="ellipse;whiteSpace=wrap;html=1;aspect=fixed;fontSize=12;strokeColor=#000000;fillColor=#000000;" vertex="1" parent="1">
                    <mxGeometry x="679" y="1821" width="20" height="20" as="geometry"/>
                </mxCell>
                <mxCell id="363" value="" style="ellipse;whiteSpace=wrap;html=1;aspect=fixed;fontSize=12;strokeColor=#000000;fillColor=#000000;" vertex="1" parent="1">
                    <mxGeometry x="589" y="1861" width="20" height="20" as="geometry"/>
                </mxCell>
                <mxCell id="364" value="" style="ellipse;whiteSpace=wrap;html=1;aspect=fixed;fontSize=12;strokeColor=#000000;fillColor=#000000;" vertex="1" parent="1">
                    <mxGeometry x="643" y="1861" width="20" height="20" as="geometry"/>
                </mxCell>
                <mxCell id="365" value="" style="ellipse;whiteSpace=wrap;html=1;aspect=fixed;fontSize=12;strokeColor=#000000;fillColor=#000000;" vertex="1" parent="1">
                    <mxGeometry x="702.5" y="1821" width="20" height="20" as="geometry"/>
                </mxCell>
                <mxCell id="366" value="" style="ellipse;whiteSpace=wrap;html=1;aspect=fixed;fontSize=12;strokeColor=#000000;fillColor=#000000;" vertex="1" parent="1">
                    <mxGeometry x="757.5" y="1821" width="20" height="20" as="geometry"/>
                </mxCell>
                <mxCell id="367" value="sibling" style="text;html=1;align=center;verticalAlign=middle;resizable=0;points=[];autosize=1;strokeColor=none;fillColor=none;fontColor=#000000;" vertex="1" parent="1">
                    <mxGeometry x="703.5" y="1741" width="50" height="20" as="geometry"/>
                </mxCell>
                <mxCell id="368" value="sson2" style="text;html=1;align=center;verticalAlign=middle;resizable=0;points=[];autosize=1;strokeColor=none;fillColor=none;fontColor=#000000;" vertex="1" parent="1">
                    <mxGeometry x="742.5" y="1781" width="50" height="20" as="geometry"/>
                </mxCell>
                <mxCell id="369" value="current" style="text;html=1;align=center;verticalAlign=middle;resizable=0;points=[];autosize=1;strokeColor=none;fillColor=none;fontColor=#000000;" vertex="1" parent="1">
                    <mxGeometry x="569" y="1821" width="50" height="20" as="geometry"/>
                </mxCell>
                <mxCell id="370" value="cson1" style="text;html=1;align=center;verticalAlign=middle;resizable=0;points=[];autosize=1;strokeColor=none;fillColor=none;fontColor=#000000;" vertex="1" parent="1">
                    <mxGeometry x="569" y="1881" width="50" height="20" as="geometry"/>
                </mxCell>
                <mxCell id="371" value="cson2" style="text;html=1;align=center;verticalAlign=middle;resizable=0;points=[];autosize=1;strokeColor=none;fillColor=none;fontColor=#000000;" vertex="1" parent="1">
                    <mxGeometry x="629" y="1881" width="50" height="20" as="geometry"/>
                </mxCell>
                <mxCell id="372" value="sson1" style="text;html=1;align=center;verticalAlign=middle;resizable=0;points=[];autosize=1;strokeColor=none;fillColor=none;fontColor=#000000;" vertex="1" parent="1">
                    <mxGeometry x="653.5" y="1841" width="50" height="20" as="geometry"/>
                </mxCell>
                <mxCell id="373" value="ssson2" style="text;html=1;align=center;verticalAlign=middle;resizable=0;points=[];autosize=1;strokeColor=none;fillColor=none;fontColor=#000000;" vertex="1" parent="1">
                    <mxGeometry x="751.5" y="1841" width="50" height="20" as="geometry"/>
                </mxCell>
                <mxCell id="374" value="ssson1" style="text;html=1;align=center;verticalAlign=middle;resizable=0;points=[];autosize=1;strokeColor=none;fillColor=none;fontColor=#000000;" vertex="1" parent="1">
                    <mxGeometry x="697" y="1841" width="50" height="20" as="geometry"/>
                </mxCell>
                <mxCell id="375" value="Case1.2.2:类似地，之字型情况只需要一次单旋转化为一字型情况处理即可" style="text;html=1;align=center;verticalAlign=middle;resizable=0;points=[];autosize=1;strokeColor=none;fillColor=none;fontColor=#000000;" vertex="1" parent="1">
                    <mxGeometry x="55" y="1911" width="410" height="20" as="geometry"/>
                </mxCell>
                <mxCell id="376" style="edgeStyle=none;html=1;exitX=0.5;exitY=1;exitDx=0;exitDy=0;entryX=1;entryY=0;entryDx=0;entryDy=0;fontColor=#000000;endArrow=classic;endFill=1;" edge="1" parent="1" source="378" target="380">
                    <mxGeometry relative="1" as="geometry"/>
                </mxCell>
                <mxCell id="377" style="edgeStyle=none;html=1;exitX=0.5;exitY=1;exitDx=0;exitDy=0;entryX=0;entryY=0;entryDx=0;entryDy=0;fontColor=#000000;endArrow=classic;endFill=1;" edge="1" parent="1" source="378" target="381">
                    <mxGeometry relative="1" as="geometry"/>
                </mxCell>
                <mxCell id="378" value="" style="ellipse;whiteSpace=wrap;html=1;aspect=fixed;fontSize=12;strokeColor=#000000;fillColor=#000000;" vertex="1" parent="1">
                    <mxGeometry x="137.5" y="1981" width="20" height="20" as="geometry"/>
                </mxCell>
                <mxCell id="379" value="current" style="text;html=1;align=center;verticalAlign=middle;resizable=0;points=[];autosize=1;strokeColor=none;fillColor=none;fontColor=#000000;" vertex="1" parent="1">
                    <mxGeometry x="89" y="1981" width="50" height="20" as="geometry"/>
                </mxCell>
                <mxCell id="380" value="" style="ellipse;whiteSpace=wrap;html=1;aspect=fixed;fontSize=12;strokeColor=#000000;fillColor=#000000;" vertex="1" parent="1">
                    <mxGeometry x="108.5" y="2021" width="20" height="20" as="geometry"/>
                </mxCell>
                <mxCell id="381" value="" style="ellipse;whiteSpace=wrap;html=1;aspect=fixed;fontSize=12;strokeColor=#000000;fillColor=#000000;" vertex="1" parent="1">
                    <mxGeometry x="163" y="2021" width="20" height="20" as="geometry"/>
                </mxCell>
                <mxCell id="382" value="cson1" style="text;html=1;align=center;verticalAlign=middle;resizable=0;points=[];autosize=1;strokeColor=none;fillColor=none;fontColor=#000000;" vertex="1" parent="1">
                    <mxGeometry x="79" y="2041" width="50" height="20" as="geometry"/>
                </mxCell>
                <mxCell id="383" value="cson2" style="text;html=1;align=center;verticalAlign=middle;resizable=0;points=[];autosize=1;strokeColor=none;fillColor=none;fontColor=#000000;" vertex="1" parent="1">
                    <mxGeometry x="137.5" y="2041" width="50" height="20" as="geometry"/>
                </mxCell>
                <mxCell id="384" style="edgeStyle=none;html=1;exitX=0.5;exitY=1;exitDx=0;exitDy=0;entryX=1;entryY=0;entryDx=0;entryDy=0;fontColor=#000000;endArrow=classic;endFill=1;" edge="1" parent="1" source="386" target="378">
                    <mxGeometry relative="1" as="geometry"/>
                </mxCell>
                <mxCell id="385" style="edgeStyle=none;html=1;exitX=0.5;exitY=1;exitDx=0;exitDy=0;entryX=0;entryY=0;entryDx=0;entryDy=0;fontColor=#000000;endArrow=classic;endFill=1;" edge="1" parent="1" source="386" target="389">
                    <mxGeometry relative="1" as="geometry"/>
                </mxCell>
                <mxCell id="386" value="" style="ellipse;whiteSpace=wrap;html=1;aspect=fixed;fontSize=12;strokeColor=#000000;fillColor=#FF0000;" vertex="1" parent="1">
                    <mxGeometry x="179" y="1941" width="20" height="20" as="geometry"/>
                </mxCell>
                <mxCell id="387" style="edgeStyle=none;html=1;exitX=0.5;exitY=1;exitDx=0;exitDy=0;entryX=1;entryY=0;entryDx=0;entryDy=0;fontColor=#000000;endArrow=classic;endFill=1;" edge="1" parent="1" source="389" target="390">
                    <mxGeometry relative="1" as="geometry"/>
                </mxCell>
                <mxCell id="388" style="edgeStyle=none;html=1;exitX=0.5;exitY=1;exitDx=0;exitDy=0;entryX=0;entryY=0;entryDx=0;entryDy=0;fontColor=#000000;endArrow=classic;endFill=1;" edge="1" parent="1" source="389" target="393">
                    <mxGeometry relative="1" as="geometry"/>
                </mxCell>
                <mxCell id="389" value="" style="ellipse;whiteSpace=wrap;html=1;aspect=fixed;fontSize=12;strokeColor=#000000;fillColor=#000000;" vertex="1" parent="1">
                    <mxGeometry x="224" y="1981" width="20" height="20" as="geometry"/>
                </mxCell>
                <mxCell id="406" style="edgeStyle=none;html=1;exitX=0.5;exitY=1;exitDx=0;exitDy=0;entryX=1;entryY=0;entryDx=0;entryDy=0;fontColor=#000000;endArrow=classic;endFill=1;" edge="1" parent="1" source="390" target="402">
                    <mxGeometry relative="1" as="geometry"/>
                </mxCell>
                <mxCell id="408" style="edgeStyle=none;html=1;exitX=0.5;exitY=1;exitDx=0;exitDy=0;entryX=0;entryY=0;entryDx=0;entryDy=0;fontColor=#000000;endArrow=classic;endFill=1;" edge="1" parent="1" source="390" target="403">
                    <mxGeometry relative="1" as="geometry"/>
                </mxCell>
                <mxCell id="390" value="" style="ellipse;whiteSpace=wrap;html=1;aspect=fixed;fontSize=12;strokeColor=#000000;fillColor=#FF0000;" vertex="1" parent="1">
                    <mxGeometry x="194" y="2021" width="20" height="20" as="geometry"/>
                </mxCell>
                <mxCell id="393" value="" style="ellipse;whiteSpace=wrap;html=1;aspect=fixed;fontSize=12;strokeColor=#000000;fillColor=#000000;" vertex="1" parent="1">
                    <mxGeometry x="254" y="2021" width="20" height="20" as="geometry"/>
                </mxCell>
                <mxCell id="394" value="sson1" style="text;html=1;align=center;verticalAlign=middle;resizable=0;points=[];autosize=1;strokeColor=none;fillColor=none;fontColor=#000000;" vertex="1" parent="1">
                    <mxGeometry x="208.5" y="2021" width="50" height="20" as="geometry"/>
                </mxCell>
                <mxCell id="395" value="sson2" style="text;html=1;align=center;verticalAlign=middle;resizable=0;points=[];autosize=1;strokeColor=none;fillColor=none;fontColor=#000000;" vertex="1" parent="1">
                    <mxGeometry x="269.5" y="2021" width="50" height="20" as="geometry"/>
                </mxCell>
                <mxCell id="396" value="sibling" style="text;html=1;align=center;verticalAlign=middle;resizable=0;points=[];autosize=1;strokeColor=none;fillColor=none;fontColor=#000000;" vertex="1" parent="1">
                    <mxGeometry x="239" y="1981" width="50" height="20" as="geometry"/>
                </mxCell>
                <mxCell id="397" value="parent" style="text;html=1;align=center;verticalAlign=middle;resizable=0;points=[];autosize=1;strokeColor=none;fillColor=none;fontColor=#000000;" vertex="1" parent="1">
                    <mxGeometry x="194" y="1941" width="50" height="20" as="geometry"/>
                </mxCell>
                <mxCell id="402" value="" style="ellipse;whiteSpace=wrap;html=1;aspect=fixed;fontSize=12;strokeColor=#000000;fillColor=#000000;" vertex="1" parent="1">
                    <mxGeometry x="167.5" y="2061" width="20" height="20" as="geometry"/>
                </mxCell>
                <mxCell id="403" value="" style="ellipse;whiteSpace=wrap;html=1;aspect=fixed;fontSize=12;strokeColor=#000000;fillColor=#000000;" vertex="1" parent="1">
                    <mxGeometry x="218.5" y="2061" width="20" height="20" as="geometry"/>
                </mxCell>
                <mxCell id="404" value="ssson1" style="text;html=1;align=center;verticalAlign=middle;resizable=0;points=[];autosize=1;strokeColor=none;fillColor=none;fontColor=#000000;" vertex="1" parent="1">
                    <mxGeometry x="153.5" y="2081" width="50" height="20" as="geometry"/>
                </mxCell>
                <mxCell id="405" value="ssson2" style="text;html=1;align=center;verticalAlign=middle;resizable=0;points=[];autosize=1;strokeColor=none;fillColor=none;fontColor=#000000;" vertex="1" parent="1">
                    <mxGeometry x="208.5" y="2081" width="50" height="20" as="geometry"/>
                </mxCell>
                <mxCell id="409" value="" style="endArrow=classic;html=1;fontSize=12;fillColor=#99CCFF;" edge="1" parent="1">
                    <mxGeometry width="50" height="50" relative="1" as="geometry">
                        <mxPoint x="331" y="2020" as="sourcePoint"/>
                        <mxPoint x="371" y="2020.5" as="targetPoint"/>
                    </mxGeometry>
                </mxCell>
                <mxCell id="410" style="edgeStyle=none;html=1;exitX=0.5;exitY=1;exitDx=0;exitDy=0;entryX=1;entryY=0;entryDx=0;entryDy=0;fontColor=#000000;endArrow=classic;endFill=1;" edge="1" parent="1" source="412" target="414">
                    <mxGeometry relative="1" as="geometry"/>
                </mxCell>
                <mxCell id="411" style="edgeStyle=none;html=1;exitX=0.5;exitY=1;exitDx=0;exitDy=0;entryX=0;entryY=0;entryDx=0;entryDy=0;fontColor=#000000;endArrow=classic;endFill=1;" edge="1" parent="1" source="412" target="415">
                    <mxGeometry relative="1" as="geometry"/>
                </mxCell>
                <mxCell id="412" value="" style="ellipse;whiteSpace=wrap;html=1;aspect=fixed;fontSize=12;strokeColor=#000000;fillColor=#000000;" vertex="1" parent="1">
                    <mxGeometry x="415" y="1981" width="20" height="20" as="geometry"/>
                </mxCell>
                <mxCell id="413" value="current" style="text;html=1;align=center;verticalAlign=middle;resizable=0;points=[];autosize=1;strokeColor=none;fillColor=none;fontColor=#000000;" vertex="1" parent="1">
                    <mxGeometry x="366.5" y="1981" width="50" height="20" as="geometry"/>
                </mxCell>
                <mxCell id="414" value="" style="ellipse;whiteSpace=wrap;html=1;aspect=fixed;fontSize=12;strokeColor=#000000;fillColor=#000000;" vertex="1" parent="1">
                    <mxGeometry x="386" y="2021" width="20" height="20" as="geometry"/>
                </mxCell>
                <mxCell id="415" value="" style="ellipse;whiteSpace=wrap;html=1;aspect=fixed;fontSize=12;strokeColor=#000000;fillColor=#000000;" vertex="1" parent="1">
                    <mxGeometry x="440.5" y="2021" width="20" height="20" as="geometry"/>
                </mxCell>
                <mxCell id="416" value="cson1" style="text;html=1;align=center;verticalAlign=middle;resizable=0;points=[];autosize=1;strokeColor=none;fillColor=none;fontColor=#000000;" vertex="1" parent="1">
                    <mxGeometry x="356.5" y="2041" width="50" height="20" as="geometry"/>
                </mxCell>
                <mxCell id="417" value="cson2" style="text;html=1;align=center;verticalAlign=middle;resizable=0;points=[];autosize=1;strokeColor=none;fillColor=none;fontColor=#000000;" vertex="1" parent="1">
                    <mxGeometry x="415" y="2041" width="50" height="20" as="geometry"/>
                </mxCell>
                <mxCell id="418" style="edgeStyle=none;html=1;exitX=0.5;exitY=1;exitDx=0;exitDy=0;entryX=1;entryY=0;entryDx=0;entryDy=0;fontColor=#000000;endArrow=classic;endFill=1;" edge="1" parent="1" source="420" target="412">
                    <mxGeometry relative="1" as="geometry"/>
                </mxCell>
                <mxCell id="419" style="edgeStyle=none;html=1;exitX=0.5;exitY=1;exitDx=0;exitDy=0;entryX=0;entryY=0;entryDx=0;entryDy=0;fontColor=#000000;endArrow=classic;endFill=1;" edge="1" parent="1" source="420" target="423">
                    <mxGeometry relative="1" as="geometry"/>
                </mxCell>
                <mxCell id="420" value="" style="ellipse;whiteSpace=wrap;html=1;aspect=fixed;fontSize=12;strokeColor=#000000;fillColor=#FF0000;" vertex="1" parent="1">
                    <mxGeometry x="456.5" y="1941" width="20" height="20" as="geometry"/>
                </mxCell>
                <mxCell id="421" style="edgeStyle=none;html=1;exitX=0.5;exitY=1;exitDx=0;exitDy=0;entryX=1;entryY=0;entryDx=0;entryDy=0;fontColor=#000000;endArrow=classic;endFill=1;" edge="1" parent="1" source="423" target="424">
                    <mxGeometry relative="1" as="geometry"/>
                </mxCell>
                <mxCell id="422" style="edgeStyle=none;html=1;exitX=0.5;exitY=1;exitDx=0;exitDy=0;entryX=0;entryY=0;entryDx=0;entryDy=0;fontColor=#000000;endArrow=classic;endFill=1;" edge="1" parent="1" source="423" target="427">
                    <mxGeometry relative="1" as="geometry"/>
                </mxCell>
                <mxCell id="423" value="" style="ellipse;whiteSpace=wrap;html=1;aspect=fixed;fontSize=12;strokeColor=#000000;fillColor=#FF0000;" vertex="1" parent="1">
                    <mxGeometry x="501.5" y="1981" width="20" height="20" as="geometry"/>
                </mxCell>
                <mxCell id="424" value="" style="ellipse;whiteSpace=wrap;html=1;aspect=fixed;fontSize=12;strokeColor=#000000;fillColor=#000000;" vertex="1" parent="1">
                    <mxGeometry x="471.5" y="2021" width="20" height="20" as="geometry"/>
                </mxCell>
                <mxCell id="425" style="edgeStyle=none;html=1;exitX=0.5;exitY=1;exitDx=0;exitDy=0;entryX=1;entryY=0;entryDx=0;entryDy=0;fontColor=#000000;endArrow=classic;endFill=1;" edge="1" parent="1" source="427" target="432">
                    <mxGeometry relative="1" as="geometry"/>
                </mxCell>
                <mxCell id="426" style="edgeStyle=none;html=1;exitX=0.5;exitY=1;exitDx=0;exitDy=0;entryX=0;entryY=0;entryDx=0;entryDy=0;fontColor=#000000;endArrow=classic;endFill=1;" edge="1" parent="1" source="427" target="433">
                    <mxGeometry relative="1" as="geometry"/>
                </mxCell>
                <mxCell id="427" value="" style="ellipse;whiteSpace=wrap;html=1;aspect=fixed;fontSize=12;strokeColor=#000000;fillColor=#000000;" vertex="1" parent="1">
                    <mxGeometry x="531.5" y="2021" width="20" height="20" as="geometry"/>
                </mxCell>
                <mxCell id="431" value="parent" style="text;html=1;align=center;verticalAlign=middle;resizable=0;points=[];autosize=1;strokeColor=none;fillColor=none;fontColor=#000000;" vertex="1" parent="1">
                    <mxGeometry x="471.5" y="1941" width="50" height="20" as="geometry"/>
                </mxCell>
                <mxCell id="432" value="" style="ellipse;whiteSpace=wrap;html=1;aspect=fixed;fontSize=12;strokeColor=#000000;fillColor=#000000;" vertex="1" parent="1">
                    <mxGeometry x="506" y="2061" width="20" height="20" as="geometry"/>
                </mxCell>
                <mxCell id="433" value="" style="ellipse;whiteSpace=wrap;html=1;aspect=fixed;fontSize=12;strokeColor=#000000;fillColor=#000000;" vertex="1" parent="1">
                    <mxGeometry x="557" y="2061" width="20" height="20" as="geometry"/>
                </mxCell>
                <mxCell id="436" value="sson1" style="text;html=1;align=center;verticalAlign=middle;resizable=0;points=[];autosize=1;strokeColor=none;fillColor=none;fontColor=#000000;" vertex="1" parent="1">
                    <mxGeometry x="516.5" y="1981" width="50" height="20" as="geometry"/>
                </mxCell>
                <mxCell id="437" value="ssson1" style="text;html=1;align=center;verticalAlign=middle;resizable=0;points=[];autosize=1;strokeColor=none;fillColor=none;fontColor=#000000;" vertex="1" parent="1">
                    <mxGeometry x="460.5" y="2041" width="50" height="20" as="geometry"/>
                </mxCell>
                <mxCell id="438" value="ssson2" style="text;html=1;align=center;verticalAlign=middle;resizable=0;points=[];autosize=1;strokeColor=none;fillColor=none;fontColor=#000000;" vertex="1" parent="1">
                    <mxGeometry x="486.5" y="2081" width="50" height="20" as="geometry"/>
                </mxCell>
                <mxCell id="439" value="sson2" style="text;html=1;align=center;verticalAlign=middle;resizable=0;points=[];autosize=1;strokeColor=none;fillColor=none;fontColor=#000000;" vertex="1" parent="1">
                    <mxGeometry x="570" y="2071" width="50" height="20" as="geometry"/>
                </mxCell>
                <mxCell id="441" value="sibling" style="text;html=1;align=center;verticalAlign=middle;resizable=0;points=[];autosize=1;strokeColor=none;fillColor=none;fontColor=#000000;" vertex="1" parent="1">
                    <mxGeometry x="550.5" y="2021" width="50" height="20" as="geometry"/>
                </mxCell>
                <mxCell id="444" value="&lt;div style=&quot;text-align: left&quot;&gt;此时实际还隐含第三种情况，也就是兄弟结点的子结点均为红色的情况&lt;/div&gt;&lt;div style=&quot;text-align: left&quot;&gt;这种情况下采用Case1.2.1和Case1.2.2两种方法均可，&lt;/div&gt;&lt;div style=&quot;text-align: left&quot;&gt;因为从最终单旋完成的结果来看，兄弟结点要么分布在两棵树中，要么其中一个提到根结点&lt;/div&gt;&lt;div style=&quot;text-align: left&quot;&gt;并且最后第二层的结点会被染成黑色，不会发生颜色冲突&lt;/div&gt;" style="text;html=1;align=center;verticalAlign=middle;resizable=0;points=[];autosize=1;strokeColor=none;fillColor=none;fontColor=#000000;" vertex="1" parent="1">
                    <mxGeometry x="55" y="2121" width="500" height="60" as="geometry"/>
                </mxCell>
                <mxCell id="448" value="&lt;div&gt;&lt;span&gt;Case2:当前结点的子结点不全为黑的情况&lt;/span&gt;&lt;/div&gt;" style="text;html=1;align=left;verticalAlign=middle;resizable=0;points=[];autosize=1;strokeColor=none;fillColor=none;fontColor=#000000;" vertex="1" parent="1">
                    <mxGeometry x="61" y="2201" width="230" height="20" as="geometry"/>
                </mxCell>
                <mxCell id="449" value="&lt;div&gt;首先是当前结点的子结点全为红的情况，显而易见这种情况完全不需要调整，直接下移一层继续查找删除结点即可&lt;/div&gt;&lt;div&gt;其次是当前结点的子结点有一个红色的情况，此时还是下移一层，如果刚好访问到红色结点则不需要调整，反之如果&lt;/div&gt;&lt;div&gt;访问到黑色结点，则需要进行一次单旋和换色的调整&lt;/div&gt;" style="text;html=1;align=left;verticalAlign=middle;resizable=0;points=[];autosize=1;strokeColor=none;fillColor=none;fontColor=#000000;" vertex="1" parent="1">
                    <mxGeometry x="100.5" y="2221" width="630" height="50" as="geometry"/>
                </mxCell>
                <mxCell id="450" style="edgeStyle=none;html=1;exitX=0.5;exitY=1;exitDx=0;exitDy=0;entryX=1;entryY=0;entryDx=0;entryDy=0;fontColor=#000000;endArrow=classic;endFill=1;" edge="1" parent="1" source="452" target="454">
                    <mxGeometry relative="1" as="geometry"/>
                </mxCell>
                <mxCell id="451" style="edgeStyle=none;html=1;exitX=0.5;exitY=1;exitDx=0;exitDy=0;entryX=0;entryY=0;entryDx=0;entryDy=0;fontColor=#000000;endArrow=classic;endFill=1;" edge="1" parent="1" source="452" target="455">
                    <mxGeometry relative="1" as="geometry"/>
                </mxCell>
                <mxCell id="452" value="" style="ellipse;whiteSpace=wrap;html=1;aspect=fixed;fontSize=12;strokeColor=#000000;fillColor=#000000;" vertex="1" parent="1">
                    <mxGeometry x="145.5" y="2351" width="20" height="20" as="geometry"/>
                </mxCell>
                <mxCell id="453" value="current" style="text;html=1;align=center;verticalAlign=middle;resizable=0;points=[];autosize=1;strokeColor=none;fillColor=none;fontColor=#000000;" vertex="1" parent="1">
                    <mxGeometry x="71.5" y="2391" width="50" height="20" as="geometry"/>
                </mxCell>
                <mxCell id="454" value="" style="ellipse;whiteSpace=wrap;html=1;aspect=fixed;fontSize=12;strokeColor=#000000;fillColor=#000000;" vertex="1" parent="1">
                    <mxGeometry x="116.5" y="2391" width="20" height="20" as="geometry"/>
                </mxCell>
                <mxCell id="508" style="edgeStyle=none;html=1;exitX=0.5;exitY=1;exitDx=0;exitDy=0;entryX=1;entryY=0;entryDx=0;entryDy=0;fontColor=#000000;endArrow=classic;endFill=1;" edge="1" parent="1" source="455" target="506">
                    <mxGeometry relative="1" as="geometry"/>
                </mxCell>
                <mxCell id="509" style="edgeStyle=none;html=1;exitX=0.5;exitY=1;exitDx=0;exitDy=0;entryX=0;entryY=0;entryDx=0;entryDy=0;fontColor=#000000;endArrow=classic;endFill=1;" edge="1" parent="1" source="455" target="507">
                    <mxGeometry relative="1" as="geometry"/>
                </mxCell>
                <mxCell id="455" value="" style="ellipse;whiteSpace=wrap;html=1;aspect=fixed;fontSize=12;strokeColor=#000000;fillColor=#FF0000;" vertex="1" parent="1">
                    <mxGeometry x="171" y="2391" width="20" height="20" as="geometry"/>
                </mxCell>
                <mxCell id="457" value="sibling" style="text;html=1;align=center;verticalAlign=middle;resizable=0;points=[];autosize=1;strokeColor=none;fillColor=none;fontColor=#000000;" vertex="1" parent="1">
                    <mxGeometry x="185.5" y="2391" width="50" height="20" as="geometry"/>
                </mxCell>
                <mxCell id="458" style="edgeStyle=none;html=1;exitX=0.5;exitY=1;exitDx=0;exitDy=0;entryX=1;entryY=0;entryDx=0;entryDy=0;fontColor=#000000;endArrow=classic;endFill=1;" edge="1" parent="1" source="460" target="452">
                    <mxGeometry relative="1" as="geometry"/>
                </mxCell>
                <mxCell id="459" style="edgeStyle=none;html=1;exitX=0.5;exitY=1;exitDx=0;exitDy=0;entryX=0;entryY=0;entryDx=0;entryDy=0;fontColor=#000000;endArrow=classic;endFill=1;" edge="1" parent="1" source="460" target="463">
                    <mxGeometry relative="1" as="geometry"/>
                </mxCell>
                <mxCell id="460" value="" style="ellipse;whiteSpace=wrap;html=1;aspect=fixed;fontSize=12;strokeColor=#000000;fillColor=#FF0000;" vertex="1" parent="1">
                    <mxGeometry x="177" y="2311" width="20" height="20" as="geometry"/>
                </mxCell>
                <mxCell id="463" value="" style="ellipse;whiteSpace=wrap;html=1;aspect=fixed;fontSize=12;strokeColor=#000000;fillColor=#000000;" vertex="1" parent="1">
                    <mxGeometry x="209" y="2351" width="20" height="20" as="geometry"/>
                </mxCell>
                <mxCell id="468" value="ancle" style="text;html=1;align=center;verticalAlign=middle;resizable=0;points=[];autosize=1;strokeColor=none;fillColor=none;fontColor=#000000;" vertex="1" parent="1">
                    <mxGeometry x="226" y="2351" width="40" height="20" as="geometry"/>
                </mxCell>
                <mxCell id="469" value="grandparent" style="text;html=1;align=center;verticalAlign=middle;resizable=0;points=[];autosize=1;strokeColor=none;fillColor=none;fontColor=#000000;" vertex="1" parent="1">
                    <mxGeometry x="193.5" y="2311" width="80" height="20" as="geometry"/>
                </mxCell>
                <mxCell id="471" value="下移访问到黑色结点的情况：此时当前结点为黑色，兄弟结点为红色，父结点为黑色" style="text;html=1;align=center;verticalAlign=middle;resizable=0;points=[];autosize=1;strokeColor=none;fillColor=none;fontColor=#000000;" vertex="1" parent="1">
                    <mxGeometry x="56.5" y="2281" width="460" height="20" as="geometry"/>
                </mxCell>
                <mxCell id="472" value="parent" style="text;html=1;align=center;verticalAlign=middle;resizable=0;points=[];autosize=1;strokeColor=none;fillColor=none;fontColor=#000000;" vertex="1" parent="1">
                    <mxGeometry x="100.5" y="2351" width="50" height="20" as="geometry"/>
                </mxCell>
                <mxCell id="473" value="" style="endArrow=classic;html=1;fontSize=12;fillColor=#99CCFF;" edge="1" parent="1">
                    <mxGeometry width="50" height="50" relative="1" as="geometry">
                        <mxPoint x="301" y="2381" as="sourcePoint"/>
                        <mxPoint x="341" y="2381.5" as="targetPoint"/>
                    </mxGeometry>
                </mxCell>
                <mxCell id="489" style="edgeStyle=none;html=1;exitX=0.5;exitY=1;exitDx=0;exitDy=0;entryX=1;entryY=0;entryDx=0;entryDy=0;fontColor=#000000;endArrow=classic;endFill=1;" edge="1" parent="1" source="491" target="493">
                    <mxGeometry relative="1" as="geometry"/>
                </mxCell>
                <mxCell id="513" style="edgeStyle=none;html=1;exitX=0.5;exitY=1;exitDx=0;exitDy=0;entryX=0;entryY=0;entryDx=0;entryDy=0;fontColor=#000000;endArrow=classic;endFill=1;" edge="1" parent="1" source="491" target="512">
                    <mxGeometry relative="1" as="geometry"/>
                </mxCell>
                <mxCell id="491" value="" style="ellipse;whiteSpace=wrap;html=1;aspect=fixed;fontSize=12;strokeColor=#000000;fillColor=#000000;" vertex="1" parent="1">
                    <mxGeometry x="417" y="2351" width="20" height="20" as="geometry"/>
                </mxCell>
                <mxCell id="492" value="parent" style="text;html=1;align=center;verticalAlign=middle;resizable=0;points=[];autosize=1;strokeColor=none;fillColor=none;fontColor=#000000;" vertex="1" parent="1">
                    <mxGeometry x="335.5" y="2391" width="50" height="20" as="geometry"/>
                </mxCell>
                <mxCell id="505" style="edgeStyle=none;html=1;exitX=0.5;exitY=1;exitDx=0;exitDy=0;entryX=1;entryY=0;entryDx=0;entryDy=0;fontColor=#000000;endArrow=classic;endFill=1;" edge="1" parent="1" source="493" target="504">
                    <mxGeometry relative="1" as="geometry"/>
                </mxCell>
                <mxCell id="517" style="edgeStyle=none;html=1;exitX=0.5;exitY=1;exitDx=0;exitDy=0;entryX=0;entryY=0;entryDx=0;entryDy=0;fontColor=#000000;endArrow=classic;endFill=1;" edge="1" parent="1" source="493" target="516">
                    <mxGeometry relative="1" as="geometry"/>
                </mxCell>
                <mxCell id="493" value="" style="ellipse;whiteSpace=wrap;html=1;aspect=fixed;fontSize=12;strokeColor=#000000;fillColor=#FF0000;" vertex="1" parent="1">
                    <mxGeometry x="388" y="2391" width="20" height="20" as="geometry"/>
                </mxCell>
                <mxCell id="495" value="sbiling" style="text;html=1;align=center;verticalAlign=middle;resizable=0;points=[];autosize=1;strokeColor=none;fillColor=none;fontColor=#000000;" vertex="1" parent="1">
                    <mxGeometry x="373" y="2351" width="50" height="20" as="geometry"/>
                </mxCell>
                <mxCell id="496" style="edgeStyle=none;html=1;exitX=0.5;exitY=1;exitDx=0;exitDy=0;entryX=1;entryY=0;entryDx=0;entryDy=0;fontColor=#000000;endArrow=classic;endFill=1;" edge="1" parent="1" source="498" target="491">
                    <mxGeometry relative="1" as="geometry"/>
                </mxCell>
                <mxCell id="497" style="edgeStyle=none;html=1;exitX=0.5;exitY=1;exitDx=0;exitDy=0;entryX=0;entryY=0;entryDx=0;entryDy=0;fontColor=#000000;endArrow=classic;endFill=1;" edge="1" parent="1" source="498" target="499">
                    <mxGeometry relative="1" as="geometry"/>
                </mxCell>
                <mxCell id="498" value="" style="ellipse;whiteSpace=wrap;html=1;aspect=fixed;fontSize=12;strokeColor=#000000;fillColor=#FF0000;" vertex="1" parent="1">
                    <mxGeometry x="448.5" y="2311" width="20" height="20" as="geometry"/>
                </mxCell>
                <mxCell id="499" value="" style="ellipse;whiteSpace=wrap;html=1;aspect=fixed;fontSize=12;strokeColor=#000000;fillColor=#000000;" vertex="1" parent="1">
                    <mxGeometry x="480.5" y="2351" width="20" height="20" as="geometry"/>
                </mxCell>
                <mxCell id="500" value="ancle" style="text;html=1;align=center;verticalAlign=middle;resizable=0;points=[];autosize=1;strokeColor=none;fillColor=none;fontColor=#000000;" vertex="1" parent="1">
                    <mxGeometry x="497.5" y="2351" width="40" height="20" as="geometry"/>
                </mxCell>
                <mxCell id="501" value="grandparent" style="text;html=1;align=center;verticalAlign=middle;resizable=0;points=[];autosize=1;strokeColor=none;fillColor=none;fontColor=#000000;" vertex="1" parent="1">
                    <mxGeometry x="465" y="2311" width="80" height="20" as="geometry"/>
                </mxCell>
                <mxCell id="504" value="" style="ellipse;whiteSpace=wrap;html=1;aspect=fixed;fontSize=12;strokeColor=#000000;fillColor=#000000;" vertex="1" parent="1">
                    <mxGeometry x="360" y="2431" width="20" height="20" as="geometry"/>
                </mxCell>
                <mxCell id="506" value="" style="ellipse;whiteSpace=wrap;html=1;aspect=fixed;fontSize=12;strokeColor=#000000;fillColor=#000000;" vertex="1" parent="1">
                    <mxGeometry x="143" y="2431" width="20" height="20" as="geometry"/>
                </mxCell>
                <mxCell id="507" value="" style="ellipse;whiteSpace=wrap;html=1;aspect=fixed;fontSize=12;strokeColor=#000000;fillColor=#000000;" vertex="1" parent="1">
                    <mxGeometry x="197" y="2431" width="20" height="20" as="geometry"/>
                </mxCell>
                <mxCell id="510" value="sson1" style="text;html=1;align=center;verticalAlign=middle;resizable=0;points=[];autosize=1;strokeColor=none;fillColor=none;fontColor=#000000;" vertex="1" parent="1">
                    <mxGeometry x="122.5" y="2451" width="50" height="20" as="geometry"/>
                </mxCell>
                <mxCell id="511" value="sson2" style="text;html=1;align=center;verticalAlign=middle;resizable=0;points=[];autosize=1;strokeColor=none;fillColor=none;fontColor=#000000;" vertex="1" parent="1">
                    <mxGeometry x="189" y="2451" width="50" height="20" as="geometry"/>
                </mxCell>
                <mxCell id="512" value="" style="ellipse;whiteSpace=wrap;html=1;aspect=fixed;fontSize=12;strokeColor=#000000;fillColor=#000000;" vertex="1" parent="1">
                    <mxGeometry x="444" y="2391" width="20" height="20" as="geometry"/>
                </mxCell>
                <mxCell id="514" value="sson2" style="text;html=1;align=center;verticalAlign=middle;resizable=0;points=[];autosize=1;strokeColor=none;fillColor=none;fontColor=#000000;" vertex="1" parent="1">
                    <mxGeometry x="457.5" y="2391" width="50" height="20" as="geometry"/>
                </mxCell>
                <mxCell id="515" value="current" style="text;html=1;align=center;verticalAlign=middle;resizable=0;points=[];autosize=1;strokeColor=none;fillColor=none;fontColor=#000000;" vertex="1" parent="1">
                    <mxGeometry x="311.5" y="2431" width="50" height="20" as="geometry"/>
                </mxCell>
                <mxCell id="516" value="" style="ellipse;whiteSpace=wrap;html=1;aspect=fixed;fontSize=12;strokeColor=#000000;fillColor=#000000;" vertex="1" parent="1">
                    <mxGeometry x="417" y="2431" width="20" height="20" as="geometry"/>
                </mxCell>
                <mxCell id="518" value="sson1" style="text;html=1;align=center;verticalAlign=middle;resizable=0;points=[];autosize=1;strokeColor=none;fillColor=none;fontColor=#000000;" vertex="1" parent="1">
                    <mxGeometry x="430.5" y="2431" width="50" height="20" as="geometry"/>
                </mxCell>
                <mxCell id="520" value="此时虽然当前结点颜色还没有调整为红色，但是可以根据当前结点子结点的颜色采用上面几种情况继续处理" style="text;html=1;align=center;verticalAlign=middle;resizable=0;points=[];autosize=1;strokeColor=none;fillColor=none;fontColor=#000000;" vertex="1" parent="1">
                    <mxGeometry x="63" y="2481" width="580" height="20" as="geometry"/>
                </mxCell>
                <mxCell id="525" value="&lt;span style=&quot;color: rgb(0 , 0 , 0) ; font-family: &amp;#34;helvetica&amp;#34; ; font-size: 12px ; font-style: normal ; font-weight: 400 ; letter-spacing: normal ; text-align: center ; text-indent: 0px ; text-transform: none ; word-spacing: 0px ; background-color: rgb(248 , 249 , 250) ; display: inline ; float: none&quot;&gt;最后，同样需要注意在删除操作调整过程中将根结点染成红色后，一定在删除操作完成前将根结点重新染成黑色&lt;/span&gt;" style="text;whiteSpace=wrap;html=1;fontSize=12;fontColor=#000000;" vertex="1" parent="1">
                    <mxGeometry x="69" y="2511" width="656.5" height="28" as="geometry"/>
                </mxCell>
            </root>
        </mxGraphModel>
    </diagram>
</mxfile>